<?xml version="1.0" encoding="UTF-8" standalone="no"?>
<!-- Created with Inkscape (http://www.inkscape.org/) -->
<svg
   xmlns:dc="http://purl.org/dc/elements/1.1/"
   xmlns:cc="http://creativecommons.org/ns#"
   xmlns:rdf="http://www.w3.org/1999/02/22-rdf-syntax-ns#"
   xmlns:svg="http://www.w3.org/2000/svg"
   xmlns="http://www.w3.org/2000/svg"
   xmlns:xlink="http://www.w3.org/1999/xlink"
   xmlns:sodipodi="http://sodipodi.sourceforge.net/DTD/sodipodi-0.dtd"
   xmlns:inkscape="http://www.inkscape.org/namespaces/inkscape"
   inkscape:export-ydpi="90.000000"
   inkscape:export-xdpi="90.000000"
   inkscape:export-filename="projector.png"
   sodipodi:docname="projector.svg"
   sodipodi:docbase="/home/darby/build/djv-0.7.2/doc"
   inkscape:version="0.46"
   sodipodi:version="0.32"
   id="svg1301"
   height="110"
   width="110"
   version="1.0"
   inkscape:output_extension="org.inkscape.output.svg.inkscape">
  <defs
     id="defs3">
    <inkscape:perspective
       sodipodi:type="inkscape:persp3d"
       inkscape:vp_x="0 : 25 : 1"
       inkscape:vp_y="0 : 1000 : 0"
       inkscape:vp_z="90 : 25 : 1"
       inkscape:persp3d-origin="45 : 16.666667 : 1"
       id="perspective2527" />
    <linearGradient
       id="linearGradient3944">
      <stop
         style="stop-color:#5a5a5a;stop-opacity:1;"
         offset="0"
         id="stop3946" />
      <stop
         style="stop-color:#3c3c3c;stop-opacity:1;"
         offset="1"
         id="stop3948" />
    </linearGradient>
    <linearGradient
       id="linearGradient14436">
      <stop
         style="stop-color:#1e1e1e;stop-opacity:1;"
         offset="0"
         id="stop14438" />
      <stop
         style="stop-color:#323232;stop-opacity:1;"
         offset="1"
         id="stop14440" />
    </linearGradient>
    <linearGradient
       id="linearGradient2064">
      <stop
         id="stop2066"
         offset="0.0000000"
         style="stop-color:#ffffff;stop-opacity:1.0000000;" />
      <stop
         id="stop2068"
         offset="1"
         style="stop-color:#ffffff;stop-opacity:0;" />
    </linearGradient>
    <linearGradient
       id="linearGradient2932">
      <stop
         style="stop-color:#ffffff;stop-opacity:1.0000000;"
         offset="0.0000000"
         id="stop2934" />
      <stop
         style="stop-color:#dcdcdc;stop-opacity:0;"
         offset="1"
         id="stop2936" />
    </linearGradient>
    <linearGradient
       inkscape:collect="always"
       xlink:href="#linearGradient2932"
       id="linearGradient2938"
       gradientTransform="matrix(3.069258,0,0,0.325812,45,147)"
       x1="-0.16290583"
       y1="197.33147"
       x2="194.99828"
       y2="197.33147"
       gradientUnits="userSpaceOnUse" />
    <linearGradient
       inkscape:collect="always"
       xlink:href="#linearGradient3944"
       id="linearGradient3950"
       x1="482.83243"
       y1="30.773149"
       x2="562.34607"
       y2="30.773149"
       gradientUnits="userSpaceOnUse"
       gradientTransform="matrix(1,0,0,0.992022,0,0.645001)" />
    <linearGradient
       inkscape:collect="always"
       xlink:href="#linearGradient3944"
       id="linearGradient6579"
       gradientUnits="userSpaceOnUse"
       gradientTransform="matrix(1,0,0,0.992022,0,0.645001)"
       x1="482.83243"
       y1="30.773149"
       x2="562.34607"
       y2="30.773149" />
    <linearGradient
       inkscape:collect="always"
       xlink:href="#linearGradient3944"
       id="linearGradient6587"
       gradientUnits="userSpaceOnUse"
       gradientTransform="matrix(1,0,0,0.992022,0,0.645001)"
       x1="482.83243"
       y1="30.773149"
       x2="562.34607"
       y2="30.773149" />
  </defs>
  <sodipodi:namedview
     inkscape:grid-bbox="true"
     inkscape:window-y="311"
     inkscape:window-x="603"
     inkscape:window-height="823"
     inkscape:window-width="937"
     inkscape:grid-points="true"
     showgrid="false"
     inkscape:current-layer="layer1"
     inkscape:document-units="px"
     inkscape:cy="55"
     inkscape:cx="55"
     inkscape:zoom="5.5727273"
     inkscape:pageshadow="2"
     inkscape:pageopacity="0.0"
     borderopacity="1.0"
     bordercolor="#666666"
     pagecolor="#ffffff"
     id="base"
     borderlayer="top">
    <inkscape:grid
       id="GridFromPre046Settings"
       type="xygrid"
       originx="0px"
       originy="0.50000000px"
       spacingx="0.50000000px"
       spacingy="1px"
       color="#0000ff"
       empcolor="#0000ff"
       opacity="0.2"
       empopacity="0.4"
       empspacing="5"
       visible="true"
       enabled="true" />
  </sodipodi:namedview>
  <metadata
     id="metadata4">
    <rdf:RDF>
      <cc:Work
         rdf:about="">
        <dc:format>image/svg+xml</dc:format>
        <dc:type
           rdf:resource="http://purl.org/dc/dcmitype/StillImage" />
      </cc:Work>
    </rdf:RDF>
  </metadata>
  <g
     inkscape:groupmode="layer"
     inkscape:label="Layer 1"
     id="layer1"
     transform="translate(-2.164253,25.5)">
    <g
       id="g6589"
       transform="translate(-467.71416,-2.4421031)">
      <path
         style="fill:url(#linearGradient6587);fill-opacity:1"
         sodipodi:nodetypes="cccccccccccccccccccccccccccccccc"
         id="path1370"
         d="M 518.05417,79.464571 C 518.36233,78.553741 534.58052,69.6434 540.90096,66.912474 C 542.52793,66.209489 543.79478,65.253818 543.96728,64.599274 C 544.17705,63.803572 544.84352,63.434398 546.29294,63.311041 C 549.43051,63.04399 549.80383,61.796191 547.66761,58.716087 C 545.48936,55.575387 545.45401,55.09577 547.2948,53.659345 C 548.38154,52.811351 548.72702,52.011408 548.72702,50.343274 C 548.72702,49.134103 548.46924,47.986733 548.15414,47.793542 C 547.83905,47.600369 547.58127,45.652492 547.58127,43.464917 C 547.58127,40.204832 547.85626,39.006567 549.10603,36.820723 C 549.94467,35.35399 551.01277,33.386701 551.47959,32.448971 C 551.94645,31.511249 552.76119,30.232532 553.29015,29.607388 C 553.81913,28.982235 555.34053,26.616613 556.67106,24.350447 C 558.00159,22.084282 559.3222,20.230154 559.60578,20.230154 C 560.80809,20.230154 560.70468,18.991455 562.10805,15.928108 C 564.66561,10.345357 545.79638,7.2641279 544.60094,9.1608715 C 541.70752,14.174357 541.28975,14.633027 540.10762,17.289942 L 539.0136,19.748741 L 536.16636,19.536251 C 533.95034,19.370865 532.99192,18.973533 531.8433,17.744039 C 530.42937,16.230564 530.21197,16.180858 526.65728,16.558487 C 524.61666,16.775292 522.94707,16.835025 522.94707,16.691263 C 522.94707,16.5475 523.48649,14.919311 524.14579,13.073077 C 526.58501,6.2425448 525.66315,-3.6690622 522.05961,-9.3574817 C 516.29036,-18.464557 503.79234,-21.287011 494.49534,-15.454637 C 488.4977,-10.72149 487.08946,-7.3869416 483.91558,-1.1157827 C 482.15967,6.7013827 482.51204,15.327875 485.16755,21.549651 C 486.34029,23.999454 491.11924,28.282109 493.73843,30.165578 C 492.23224,32.9166 491.83319,33.099127 491.97864,41.921769 C 492.75344,54.512124 493.77916,59.79156 494.00533,65.622408 C 496.74299,71.23261 509.34612,80.806819 514.23937,80.845201 C 515.39506,80.854248 517.87146,80.004589 518.05417,79.464571 z" />
      <path
         sodipodi:nodetypes="cccccccccccccccccccccccccccccccccccccccccccccccccccccccccccccccccccccccccccccccccccccccccccccccccccccccccccccccccccccccccccccccccccccccccccccccccccccccccccccccccccccccccccccccccccccccccccccccccccccccccccccccccccccccccccccccccccccccccccccccccccccccccccccccccccccccccccccccccccccccccccccccccccccccccccccccccccccccccccccccccccccccc"
         id="path3885"
         d="M 518.0516,79.73496 C 518.36348,78.816805 534.77787,69.834812 541.17477,67.081932 C 542.82143,66.373293 544.1036,65.409937 544.27819,64.750129 C 544.49051,63.948027 545.16503,63.575885 546.63198,63.451526 C 549.80751,63.182337 550.18535,61.924503 548.02329,58.819627 C 545.81868,55.653669 545.7829,55.170195 547.64597,53.722216 C 548.74585,52.867402 549.09552,52.061017 549.09552,50.379476 C 549.09552,49.160582 548.83461,48.003983 548.5157,47.809239 C 548.1968,47.614513 547.93591,45.65096 547.93591,43.445802 C 547.93591,40.159497 548.21422,38.951595 549.47911,36.748172 C 550.3279,35.269643 551.40891,33.286532 551.88139,32.34126 C 552.3539,31.395997 553.17848,30.106997 553.71384,29.476825 C 554.24922,28.846643 555.78903,26.461997 557.13566,24.177606 C 558.48228,21.893214 559.81888,20.024179 560.10589,20.024179 C 561.32274,20.024179 561.21807,18.775514 562.63842,15.68753 C 565.22692,10.059881 546.12942,6.953872 544.91951,8.86587 C 541.9911,13.919675 541.56827,14.382035 540.37185,17.060318 L 539.26459,19.538891 L 536.38291,19.324691 C 534.14007,19.157975 533.17005,18.757449 532.00754,17.518066 C 530.5765,15.99242 530.35648,15.942313 526.75879,16.322979 C 524.69348,16.541529 523.00368,16.601741 523.00368,16.456824 C 523.00368,16.311905 523.54963,14.670621 524.21691,12.809538 C 526.68563,5.924072 525.75262,-4.067248 522.10549,-9.801416 C 516.26644,-18.981733 503.61722,-21.826887 494.20775,-15.947607 C 488.13755,-11.176394 486.71229,-7.815028 483.5,-1.493433 C 481.72285,6.3866 482.07948,15.082471 484.76712,21.354284 C 485.95405,23.82379 490.79081,28.140888 493.44169,30.039503 C 491.91728,32.81265 491.51341,32.996645 491.66061,41.890243 C 492.44479,54.581845 493.48292,59.903749 493.71182,65.781492 C 496.4826,71.436813 509.23819,81.088 514.19065,81.12669 C 515.36031,81.13582 517.86667,80.27932 518.0516,79.73496 z M 513.43668,79.820071 C 512.47998,79.393228 510.16548,78.495462 508.2933,77.825035 C 505.52124,76.832322 503.98704,75.70438 500.02792,71.748283 C 497.35409,69.076521 495.04147,66.335334 494.88875,65.65676 C 494.40705,63.516267 492.85312,42.219741 492.8531,37.758026 C 492.85307,33.536574 492.87793,33.466412 494.9954,31.709894 L 497.13769,29.932744 L 495.65601,29.131902 C 492.50047,27.426314 489.50523,25.212999 488.06657,23.523685 C 484.20265,18.986526 482.46829,8.499217 484.43437,1.560295 C 486.73328,-6.553252 491.58424,-13.137931 497.49165,-16.163621 C 499.65879,-17.273581 500.98498,-17.5 505.31921,-17.5 C 509.88322,-17.5 510.95981,-17.295167 513.90453,-15.866479 C 517.90101,-13.927524 521.15,-10.182559 523.04799,-5.32732 C 525.00335,-0.325154 524.89124,8.065378 522.80048,13.194467 C 521.95554,15.267267 521.26423,17.265203 521.26423,17.634338 C 521.26423,18.515237 522.8019,18.483105 525.98813,17.535671 C 529.01674,16.635088 530.53022,17.04264 531.91572,19.131885 C 532.87485,20.578245 533.11339,20.636948 537.38321,20.47742 L 541.84781,20.310613 L 543.7102,16.586847 C 544.73451,14.538767 561.82997,14.625232 561.16959,15.931978 C 560.63508,16.989716 559.68137,18.407612 559.05025,19.082868 C 558.41912,19.758124 556.94136,22.049859 555.76633,24.175618 C 553.80657,27.720997 552.57444,29.304074 552.57444,28.276686 C 552.57444,28.052044 553.50815,26.218589 554.64934,24.202343 C 556.91654,20.196715 556.78413,19.271644 553.8604,18.688978 C 552.99367,18.516259 551.63223,18.216494 550.83497,18.022824 C 549.56424,17.714148 549.19548,18.010181 547.84541,20.422888 C 542.77504,29.484113 542.67001,29.911039 545.27045,30.887907 C 546.22858,31.247853 546.7543,31.946788 546.87979,33.027625 C 547.01097,34.157611 547.37238,34.608295 548.10051,34.550021 C 548.90091,34.485933 549.04932,34.745092 548.75671,35.695786 C 548.54872,36.371504 548.04832,37.311065 547.64471,37.783715 C 547.24107,38.256337 546.73223,40.594766 546.51392,42.980197 C 546.1869,46.55329 546.27721,47.448733 547.02643,48.063107 C 548.48732,49.261043 548.1935,52.348954 546.53518,53.225855 C 544.32729,54.393362 544.32824,55.855468 546.53863,58.469488 C 549.22566,61.647232 549.12236,62.417896 546.00939,62.417896 C 543.19349,62.417896 537.91215,64.777171 525.90278,71.399945 C 521.91654,73.598236 518.17965,75.569207 517.59859,75.77988 C 516.94976,76.015132 516.583,76.661102 516.64808,77.454068 C 516.89541,80.46767 516.13831,81.02546 513.43668,79.820071 z M 515.75336,77.874192 C 515.43059,76.42222 515.65636,75.878344 517.15682,74.493464 C 518.14031,73.585751 518.94496,72.430897 518.94496,71.927136 C 518.94496,71.259023 519.5045,71.011211 521.01302,71.011211 C 522.3256,71.011211 523.77531,70.488023 524.98151,69.578994 C 526.02676,68.791262 527.41154,68.146767 528.05879,68.146767 C 529.28746,68.146767 534.34682,65.577761 534.91872,64.663488 C 535.09999,64.373675 535.72684,64.136557 536.31171,64.136557 C 536.89658,64.136557 537.52527,63.749858 537.70884,63.277217 C 537.89241,62.804586 538.45466,62.417896 538.95833,62.417896 C 539.46195,62.417896 540.48931,61.71117 541.24129,60.847388 C 542.27305,59.662217 542.47256,59.025868 542.05438,58.253832 C 541.54986,57.322398 541.35999,57.30689 539.93455,58.080671 C 531.97379,62.402033 531.34127,61.525225 538.37754,55.922308 C 541.08343,53.767632 543.29735,51.619291 543.29735,51.148237 C 543.29735,50.677173 543.02611,50.381091 542.69462,50.490267 C 541.73301,50.806972 535.91048,55.537727 532.06865,59.123782 C 530.12765,60.935541 528.30862,62.417896 528.02636,62.417896 C 527.74303,62.417896 527.70686,61.455772 527.94564,60.269565 C 528.18351,59.087977 528.42861,57.460604 528.49031,56.653184 C 528.55203,55.845754 529.10397,54.170969 529.71687,52.931434 C 530.58898,51.167711 531.55606,50.336935 534.16519,49.110137 C 535.99887,48.24796 537.49915,47.336579 537.49915,47.084839 C 537.49915,46.833127 538.6807,46.282467 540.12479,45.861167 C 542.91516,45.047131 543.87716,43.936013 543.87716,41.527161 C 543.87716,39.742173 542.69847,39.165534 540.94504,40.092713 C 540.02925,40.576962 539.8666,40.896382 540.37696,41.20803 C 541.46239,41.870852 540.8699,43.48239 539.1666,44.500073 C 537.32627,45.59962 535.75972,45.132876 535.75972,43.48504 C 535.75972,42.452184 535.51742,42.328339 534.09897,42.63617 C 532.51241,42.980467 532.42043,42.886818 532.0406,40.539795 C 531.82191,39.188564 531.07927,37.490124 530.39025,36.765482 C 529.16658,35.478487 529.16389,35.440387 530.2743,35.121163 C 537.7486,32.972393 542.40323,31.104394 542.19753,30.336155 C 542.07099,29.863515 541.84394,27.994479 541.69299,26.18271 C 541.54201,24.37096 541.18895,22.888605 540.90838,22.888605 C 540.62782,22.888605 540.39825,23.266234 540.39825,23.72778 C 540.39825,24.189335 539.90643,24.827037 539.30531,25.144881 C 538.7042,25.462752 538.04693,26.374124 537.84471,27.17016 C 537.55924,28.293996 537.10813,28.617494 535.82643,28.617494 C 532.81583,28.617494 522.84353,32.276277 520.81698,34.124382 C 518.64811,36.102286 513.37185,38.034112 512.76935,37.070896 C 512.56058,36.737152 512.88626,36.102165 513.49303,35.659767 C 514.09984,35.217388 514.52666,34.513256 514.44152,34.095016 C 514.35637,33.676796 515.20437,32.427957 516.32593,31.319798 C 518.50002,29.171691 518.99358,26.803542 517.64035,25.013085 C 516.98839,24.150442 516.58834,24.339019 513.65677,26.891051 C 511.4125,28.84474 509.51713,29.947301 507.56868,30.432501 C 506.01258,30.820022 504.32745,31.472458 503.82403,31.882392 C 503.32055,32.292317 502.63092,32.627704 502.29155,32.627704 C 501.4728,32.627704 500.93876,34.07473 501.52444,34.706218 C 502.61716,35.884418 503.98382,41.56345 503.96202,44.83545 C 503.9407,48.041878 504.63952,52.107347 506.20796,57.901257 C 506.97117,60.72051 506.9135,65.531366 506.08376,68.267775 C 505.42881,70.427687 505.31428,70.511183 503.47456,70.170179 C 502.0344,69.903238 501.55039,70.016773 501.55039,70.621545 C 501.55039,71.979634 503.64814,74.160187 505.99332,75.239792 C 507.21705,75.803152 509.78381,76.995919 511.69721,77.890391 C 516.11045,79.953443 516.21547,79.953033 515.75336,77.874192 z M 509.37793,75.02143 C 509.18086,74.706349 509.29592,74.448543 509.63363,74.448543 C 509.97137,74.448543 510.24767,74.706349 510.24767,75.02143 C 510.24767,75.755525 509.83714,75.755525 509.37793,75.02143 z M 521.28269,61.988226 C 521.29281,61.75191 521.66681,61.081595 522.11383,60.49864 C 523.05923,59.265655 524.16332,59.70055 524.16332,61.305929 C 524.16332,62.110093 523.76208,62.417896 522.71379,62.417896 C 521.91654,62.417896 521.27254,62.224551 521.28269,61.988226 z M 513.72659,60.699226 C 513.72659,59.957964 514.71247,59.957964 515.17614,60.699226 C 515.37322,61.014316 515.12771,61.272122 514.63053,61.272122 C 514.13336,61.272122 513.72659,61.014316 513.72659,60.699226 z M 522.88596,58.556503 C 521.68506,58.285932 521.05,56.53979 521.56705,54.930146 C 521.85752,54.025913 521.65238,53.667787 520.7036,53.422634 C 519.95584,53.229429 519.58072,52.788179 519.7637,52.31705 C 519.93116,51.885841 519.83304,51.533005 519.54567,51.533005 C 519.25826,51.533005 518.84972,50.993234 518.63779,50.333463 C 518.36025,49.469505 518.69855,48.67387 519.84706,47.489398 C 520.7241,46.584914 521.62424,45.956347 521.84736,46.092602 C 522.07047,46.228858 522.74806,45.970082 523.35313,45.51756 C 524.7738,44.455068 523.76682,44.443142 520.77235,45.487028 C 518.03702,46.440595 517.20949,45.845052 518.59079,43.917052 C 519.08879,43.221971 521.05565,40.978087 522.96161,38.930646 C 525.54317,36.157462 526.59453,35.373594 527.08396,35.857152 C 527.57335,36.340729 527.52728,36.92487 526.90332,38.147543 C 526.44265,39.050227 525.92717,41.077811 525.75782,42.653246 C 525.58848,44.228681 525.5738,45.051815 525.72522,44.482427 C 525.8812,43.895944 526.41923,43.525136 526.96636,43.627025 C 527.65484,43.755228 528.0838,44.750535 528.4603,47.093331 C 528.91132,49.899837 528.8395,50.542382 527.96864,51.493197 C 527.40773,52.105565 527.12971,52.895779 527.3508,53.249221 C 527.57187,53.602673 527.03221,54.919201 526.15149,56.174851 C 524.31976,58.786464 524.22226,58.857578 522.88596,58.556503 z M 526.20609,53.2731 C 525.67101,52.417688 524.74314,52.541468 524.74314,53.468246 C 524.74314,53.902451 524.17676,54.629267 523.48454,55.083404 C 522.69676,55.600219 522.39484,56.179125 522.67745,56.630938 C 523.0071,57.157934 523.59449,56.882342 524.85338,55.610092 C 525.80182,54.651606 526.41053,53.599957 526.20609,53.2731 z M 523.11241,51.714564 C 522.69386,51.549064 522.19376,51.569415 522.00109,51.759774 C 521.80842,51.950152 522.15088,52.085549 522.76208,52.060691 C 523.43757,52.033182 523.57495,51.897439 523.11241,51.714564 z M 525.67325,47.677947 C 525.48061,47.487588 525.34356,47.825951 525.36875,48.429865 C 525.39656,49.09725 525.53396,49.233002 525.71903,48.775992 C 525.88653,48.362437 525.86593,47.868325 525.67325,47.677947 z M 509.75576,44.732227 C 508.46208,43.90885 509.20652,42.080349 510.83545,42.080349 C 511.98448,42.080349 512.27705,42.369434 512.27705,43.504729 C 512.27705,45.00891 511.09483,45.584484 509.75576,44.732227 z M 511.98713,43.512576 C 511.98713,43.197495 511.59576,42.939689 511.11739,42.939689 C 510.63906,42.939689 510.24767,43.197495 510.24767,43.512576 C 510.24767,43.827667 510.63906,44.085473 511.11739,44.085473 C 511.59576,44.085473 511.98713,43.827667 511.98713,43.512576 z M 507.34859,36.098852 C 507.34859,35.765155 507.60949,35.492148 507.92842,35.492148 C 508.67138,35.492148 508.67138,35.89779 507.92842,36.351488 C 507.60949,36.546233 507.34859,36.432531 507.34859,36.098852 z M 499.23111,64.456808 C 499.23111,64.002774 498.98824,63.482973 498.69137,63.301693 C 498.00202,62.880748 497.30875,63.953505 497.78157,64.709444 C 498.31474,65.561832 499.23111,65.402118 499.23111,64.456808 z M 546.77624,60.769369 C 546.77624,60.492863 546.40235,59.960017 545.94534,59.585262 C 545.28479,59.043625 544.86863,59.146727 543.91595,60.088015 L 542.71752,61.272122 L 544.74688,61.272122 C 545.86304,61.272122 546.77624,61.045884 546.77624,60.769369 z M 499.23111,58.764264 C 499.23111,58.330218 498.83974,57.654145 498.3614,57.261894 C 497.43935,56.505833 497.22974,57.066673 497.8436,58.647259 C 498.27658,59.762053 499.23111,59.842545 499.23111,58.764264 z M 500.39076,52.40706 C 500.39076,51.409607 499.87222,50.724614 498.64086,50.095477 C 497.03174,49.273295 496.86072,49.27937 496.51441,50.171033 C 496.26246,50.819775 496.66042,51.584803 497.71679,52.482625 C 499.73232,54.195576 500.39076,54.176969 500.39076,52.40706 z M 500.38187,46.48644 C 500.36793,44.964577 499.6469,44.198662 497.32637,43.240671 C 495.17839,42.353906 495.1724,42.355381 495.1724,43.77069 C 495.1724,44.763552 495.81117,45.618814 497.29863,46.61748 C 499.53996,48.122305 500.39655,48.085903 500.38187,46.48644 z M 499.81094,41.462541 C 499.81094,41.045926 495.32874,36.637922 494.9051,36.637922 C 494.03081,36.637922 494.78042,38.774067 496.15057,40.187127 C 497.51596,41.595214 499.81094,42.39489 499.81094,41.462541 z M 521.90759,30.169778 C 521.59661,29.862516 520.90387,29.777312 520.36817,29.980427 C 519.57354,30.281707 519.52716,30.50802 520.11622,31.209334 C 520.67664,31.876523 521.02123,31.918906 521.65565,31.398704 C 522.18669,30.963248 522.27494,30.532738 521.90759,30.169778 z M 527.64224,28.717339 C 527.64224,28.14211 526.9976,27.073067 526.2097,26.341716 C 525.02129,25.238623 524.62601,25.135904 523.89041,25.739118 C 522.58855,26.806649 522.76023,28.617494 524.16332,28.617494 C 524.80112,28.617494 525.32296,28.875291 525.32296,29.190372 C 525.32296,29.505453 525.84479,29.763268 526.48261,29.763268 C 527.21878,29.763268 527.64224,29.381347 527.64224,28.717339 z M 502.59447,23.630557 C 502.85046,19.252629 501.84908,16.109855 500.05655,15.665329 C 498.6629,15.319733 494.25111,16.211549 492.12834,17.267967 C 490.49845,18.079092 490.94488,19.868868 493.44573,22.549542 C 496.124,25.420351 498.88268,26.962445 500.97058,26.755831 C 502.2866,26.625584 502.43617,26.337713 502.59447,23.630557 z M 511.96553,25.036936 C 515.45666,22.950976 517.42943,20.694448 516.91652,19.373795 C 516.48937,18.273996 512.99075,16.586847 511.1372,16.586847 C 510.27534,16.586847 509.30626,17.198157 508.58783,18.195066 C 507.14271,20.200252 504.96789,25.764294 505.3749,26.414957 C 506.01634,27.440442 508.9801,26.820749 511.96553,25.036936 z M 533.0293,24.096862 C 533.62543,23.507859 531.15565,18.480712 530.05346,18.039638 C 529.23011,17.710134 522.87159,19.17421 521.13282,20.093651 C 519.1136,21.161387 520.15173,21.61669 522.80593,20.827428 C 527.77894,19.348671 529.2791,19.855136 528.20374,22.649779 C 527.74568,23.840129 527.78014,24.346325 528.34456,24.718505 C 529.17564,25.266543 532.25966,24.857299 533.0293,24.096862 z M 523.29359,23.138759 C 526.18944,22.638124 527.7786,21.851419 527.33303,21.139104 C 526.94557,20.519653 524.67243,20.974761 522.4625,22.114208 C 521.64399,22.536254 520.53312,22.883137 519.99386,22.885087 C 519.4546,22.887028 518.82863,23.184007 518.60278,23.545045 C 518.3196,23.997772 518.62385,24.098821 519.58326,23.870605 C 520.34833,23.688626 522.018,23.359277 523.29359,23.138759 z M 547.93591,17.732617 C 548.34227,16.982357 549.14993,16.586847 550.27558,16.586847 C 552.23202,16.586847 546.12013,18.878387 546.75586,18.878387 C 547.06356,18.878387 547.59455,18.362801 547.93591,17.732617 z M 558.31531,16.242272 C 559.51493,14.735449 554.2672,16.178661 554.4766,16.730074 C 555.03387,18.197496 556.95286,17.953647 558.31531,16.242272 z M 521.48521,12.001424 C 522.70576,8.477966 523.08275,1.644771 522.07562,1.299335 C 521.72464,1.178942 520.09388,2.326772 518.45176,3.850058 C 516.01136,6.113833 515.46604,6.969609 515.46604,8.535538 C 515.46604,10.843963 518.2749,15.529214 519.52478,15.305613 C 520.00313,15.220028 520.88532,13.733152 521.48521,12.001424 z M 505.89905,14.429731 C 506.21794,14.198242 507.05612,13.194538 507.76166,12.199249 C 508.83878,10.679854 508.91542,10.283816 508.23955,9.729603 C 507.79682,9.366577 507.08911,9.144965 506.66683,9.237153 C 506.24455,9.32934 505.03362,8.768224 503.97591,7.99025 C 502.24668,6.718332 502.09116,6.372857 502.4333,4.563399 C 502.64258,3.456628 503.07602,2.237507 503.39655,1.854234 C 503.71707,1.470961 503.86801,0.82757 503.73203,0.424456 C 503.41271,-0.522098 499.89165,3.217216 499.43684,4.985864 C 498.87503,7.170709 499.6978,9.302172 500.97556,8.972018 C 502.40804,8.601896 503.49222,9.89836 503.00877,11.403353 C 502.21148,13.885412 504.02825,15.787747 505.89905,14.429731 z M 494.92031,10.035988 C 498.86108,6.142319 499.00487,4.64724 495.89715,-0.1193 C 494.70128,-1.953514 493.54491,-3.456482 493.32746,-3.45923 C 492.55088,-3.469072 490.38127,0.101378 489.59473,2.683617 C 488.77011,5.390828 488.49523,12.090072 489.18092,12.767583 C 490.18949,13.764088 492.03704,12.884772 494.92031,10.035988 z M 511.70043,8.561279 C 512.15364,7.836724 511.50193,5.701967 510.8275,5.701967 C 510.15307,5.701967 509.50134,7.836724 509.95456,8.561279 C 510.41777,9.301838 511.23721,9.301838 511.70043,8.561279 z M 513.93412,6.555754 C 513.54063,5.542594 513.50717,5.544549 513.11793,6.603185 C 512.63214,7.924474 513.06269,8.878651 513.81106,8.139236 C 514.10442,7.849382 514.15979,7.136816 513.93412,6.555754 z M 512.72989,0.645962 C 511.44309,-1.056944 509.86637,-2.132677 509.37244,-1.644663 C 509.17938,-1.453915 510.01484,0.212668 511.22905,2.058838 C 513.36886,5.31241 513.44258,5.364436 513.6287,3.752536 C 513.74295,2.763128 513.37888,1.504835 512.72989,0.645962 z M 507.92842,0.866234 C 507.92842,-0.800085 506.84584,-1.641952 506.133,-0.529969 C 505.22697,0.883366 505.54121,2.26464 506.76876,2.26464 C 507.61169,2.26464 507.92842,1.882704 507.92842,0.866234 z M 519.52478,-2.306788 C 521.51582,-2.822231 521.63844,-4.619966 519.87124,-7.385962 C 518.26858,-9.894362 514.99651,-12.630444 513.59938,-12.630444 C 512.57698,-12.630444 511.98287,-10.321931 511.99601,-6.400288 C 512.00583,-3.475851 512.3026,-2.810628 514.01651,-1.871698 C 515.09887,-1.278733 515.75338,-1.330425 519.52478,-2.306788 z M 504.13361,-3.820108 C 505.21626,-4.2306 506.36305,-6.253695 507.67138,-10.061234 C 508.98379,-13.880637 508.55353,-14.571829 505.17521,-14.07128 C 501.94362,-13.592475 499.54251,-12.482622 497.34671,-10.452765 C 495.02447,-8.306018 495.31959,-7.245322 498.79625,-5.242826 C 501.9903,-3.403136 502.60304,-3.239802 504.13361,-3.820108 z M 547.28359,30.888663 C 546.76538,30.348463 545.98263,29.779234 545.54414,29.623662 C 544.91592,29.40084 545.05422,28.747974 546.19646,26.544392 C 547.75477,23.538074 549.59687,22.716032 551.55464,24.153325 C 552.50403,24.85031 552.48391,25.061608 551.21153,27.758164 C 549.47074,31.447338 548.53498,32.193144 547.28359,30.888663 z"
         style="fill:#000000" />
      <path
         transform="matrix(1.100346,0.182908,-0.242319,1.068315,457.408,-60.83322)"
         d="M 110.54264,40.155037 A 11.705426,14.263566 0 1 1 87.131785,40.155037 A 11.705426,14.263566 0 1 1 110.54264,40.155037 z"
         sodipodi:ry="14.263566"
         sodipodi:rx="11.705426"
         sodipodi:cy="40.155037"
         sodipodi:cx="98.837212"
         id="path2497"
         style="fill:#505050;fill-opacity:1;stroke:none;stroke-width:1;stroke-linejoin:round;stroke-miterlimit:4;stroke-opacity:1"
         sodipodi:type="arc" />
      <g
         transform="matrix(0.933132,0,0,0.933132,31.43595,-20.83071)"
         id="g1316">
        <path
           sodipodi:nodetypes="cccccccccccccccccccccccccccccccccccccccccccccccccccccc"
           id="path2495"
           d="M 576.88284,26.621895 C 578.60048,22.070045 578.22146,15.081852 575.91195,11.385627 C 572.21441,5.4680264 563.44597,3.2918683 557.19118,7.2995647 C 554.94675,8.7376387 551.79458,12.490526 550.52156,14.794719 C 548.58456,18.794719 548.29952,22.423866 548.41022,26.53311 C 548.49794,29.790363 550.34141,35.302021 557.15499,38.698212 C 561.36398,39.865208 572.90137,40.078442 576.88284,26.621895 z M 560.35415,38.142548 L 557.55233,37.515598 C 555.50746,36.450506 553.57497,35.050121 552.65573,33.967232 C 550.1869,31.058803 549.19987,24.216911 550.58865,19.638371 C 552.21252,14.284772 555.48806,9.8904958 559.40538,7.8103388 C 560.84245,7.0472438 561.71539,6.8769268 564.55768,6.8050908 C 567.55065,6.7294468 568.25372,6.8457958 570.16433,7.7329778 C 572.75733,8.9370248 574.83427,11.336645 576.00933,14.486041 C 577.21992,17.730743 576.8352,23.927947 575.39059,27.322863 C 574.20635,30.263121 573.66575,31.886684 569.47658,35.683144 C 564.96183,38.303001 564.11653,37.795782 560.35415,38.142548 z M 562.18128,33.796459 C 562.41189,30.924066 561.80027,28.881712 560.63114,28.620195 C 559.72218,28.41688 556.81623,29.074265 555.40902,29.801548 C 554.32855,30.359962 554.59566,31.525113 556.19723,33.239878 C 557.91241,35.076265 559.6994,36.040823 561.07157,35.870859 C 561.93646,35.763715 562.03866,35.572645 562.18128,33.796459 z M 568.30645,34.562515 C 570.62576,33.138054 571.9518,31.627024 571.63438,30.770313 C 571.37002,30.056872 569.09989,29.009543 567.88438,29.040264 C 567.31919,29.054548 566.67492,29.471103 566.1895,30.136123 C 565.21309,31.473752 563.70712,35.155013 563.96472,35.57454 C 564.37065,36.235743 566.3231,35.780637 568.30645,34.562515 z M 574.7361,25.864667 C 575.58701,23.536085 575.93219,19.053148 575.27669,18.843532 C 575.04824,18.770476 573.96238,19.549492 572.86368,20.574672 C 571.23087,22.098205 570.86099,22.667896 570.83854,23.693795 C 570.80545,25.206134 572.58028,28.229067 573.40313,28.061862 C 573.71804,27.997863 574.31788,27.009132 574.7361,25.864667 z M 557.3436,25.017327 C 559.98368,22.40112 560.0994,21.419253 558.12977,18.348017 C 557.37183,17.166174 556.63506,16.200688 556.49249,16.202492 C 555.98336,16.208916 554.50941,18.584013 553.9566,20.288773 C 553.37703,22.076039 553.10073,26.469526 553.54069,26.902025 C 554.1878,27.538157 555.41199,26.931462 557.3436,25.017327 z M 573.65559,16.523301 C 574.96867,16.152615 575.07486,14.972818 573.95559,13.189997 C 572.94057,11.573211 570.83404,9.8349298 569.91783,9.8580858 C 569.24736,9.8750318 568.82467,11.397274 568.77706,13.966276 C 568.74158,15.882025 568.92666,16.312918 570.03715,16.899641 C 570.73844,17.270175 571.1684,17.225463 573.65559,16.523301 z M 563.58409,15.786964 C 564.29996,15.50009 565.08099,14.155676 565.99356,11.639526 C 566.90894,9.1155368 566.63671,8.6698418 564.4141,9.0537638 C 562.28803,9.4210078 560.69753,10.187912 559.22847,11.554143 C 557.67483,12.999048 557.85316,13.689059 560.10437,14.943349 C 562.17258,16.095662 562.57205,16.192513 563.58409,15.786964 z"
           style="fill:#000000" />
        <path
           transform="matrix(0.173106,2.952918e-2,-3.812157e-2,0.172471,549.8386,13.07264)"
           d="M 110.54264,40.155037 A 11.705426,14.263566 0 1 1 87.131785,40.155037 A 11.705426,14.263566 0 1 1 110.54264,40.155037 z"
           sodipodi:ry="14.263566"
           sodipodi:rx="11.705426"
           sodipodi:cy="40.155037"
           sodipodi:cx="98.837212"
           id="path4015"
           style="fill:#000000;fill-opacity:1;stroke:none;stroke-width:1;stroke-linejoin:round;stroke-miterlimit:4;stroke-opacity:1"
           sodipodi:type="arc" />
      </g>
    </g>
  </g>
</svg>
