<?xml version="1.0" encoding="UTF-8" standalone="no"?>
<svg
   xmlns:dc="http://purl.org/dc/elements/1.1/"
   xmlns:cc="http://creativecommons.org/ns#"
   xmlns:rdf="http://www.w3.org/1999/02/22-rdf-syntax-ns#"
   xmlns:svg="http://www.w3.org/2000/svg"
   xmlns="http://www.w3.org/2000/svg"
   xmlns:sodipodi="http://sodipodi.sourceforge.net/DTD/sodipodi-0.dtd"
   xmlns:inkscape="http://www.inkscape.org/namespaces/inkscape"
   viewBox="0 0 511.99997 511.99997"
   version="1.1"
   id="svg14"
   sodipodi:docname="logo-filmreel.svg"
   width="512"
   height="512"
   inkscape:export-filename="C:\dev\djv-git\etc\Windows\djv_view_512x512.png"
   inkscape:export-xdpi="96"
   inkscape:export-ydpi="96"
   inkscape:version="0.92.4 (5da689c313, 2019-01-14)">
  <metadata
     id="metadata18">
    <rdf:RDF>
      <cc:Work
         rdf:about="">
        <dc:format>image/svg+xml</dc:format>
        <dc:type
           rdf:resource="http://purl.org/dc/dcmitype/StillImage" />
        <dc:title>logo-filmreel</dc:title>
      </cc:Work>
    </rdf:RDF>
  </metadata>
  <sodipodi:namedview
     pagecolor="#ffffff"
     bordercolor="#666666"
     borderopacity="1"
     objecttolerance="10"
     gridtolerance="10"
     guidetolerance="10"
     inkscape:pageopacity="0"
     inkscape:pageshadow="2"
     inkscape:window-width="1920"
     inkscape:window-height="1137"
     id="namedview16"
     showgrid="false"
     inkscape:zoom="1.2851562"
     inkscape:cx="222.93008"
     inkscape:cy="220.98481"
     inkscape:window-x="-8"
     inkscape:window-y="-8"
     inkscape:window-maximized="1"
     inkscape:current-layer="svg14" />
  <defs
     id="defs4">
    <style
       id="style2">.cls-1{fill:#070707;}.cls-1,.cls-2{stroke:#000;stroke-miterlimit:10;}.cls-2{fill:#353535;}</style>
  </defs>
  <title
     id="title6">logo-filmreel</title>
  <path
     style="color:#000000;clip-rule:nonzero;display:inline;overflow:visible;visibility:visible;opacity:1;isolation:auto;mix-blend-mode:normal;color-interpolation:sRGB;color-interpolation-filters:linearRGB;solid-color:#000000;solid-opacity:1;fill:#f0f0f0;fill-opacity:1;fill-rule:nonzero;stroke:#000000;stroke-width:10;stroke-linecap:square;stroke-linejoin:miter;stroke-miterlimit:4;stroke-dasharray:none;stroke-dashoffset:0;stroke-opacity:1;color-rendering:auto;image-rendering:auto;shape-rendering:auto;text-rendering:auto;enable-background:accumulate"
     d="M 256,36 A 220.00021,220.00021 0 0 0 36,256 220.00021,220.00021 0 0 0 256,476 220.00021,220.00021 0 0 0 476,256 220.00021,220.00021 0 0 0 256,36 Z"
     id="path4539" />
  <path
     style="color:#000000;clip-rule:nonzero;display:inline;overflow:visible;visibility:visible;opacity:1;isolation:auto;mix-blend-mode:normal;color-interpolation:sRGB;color-interpolation-filters:linearRGB;solid-color:#000000;solid-opacity:1;fill:#000000;fill-opacity:1;fill-rule:nonzero;stroke:none;stroke-width:11.99999905;stroke-linecap:square;stroke-linejoin:miter;stroke-miterlimit:4;stroke-dasharray:none;stroke-dashoffset:0;stroke-opacity:1;color-rendering:auto;image-rendering:auto;shape-rendering:auto;text-rendering:auto;enable-background:accumulate"
     d="M 254.61,69.061964 A 58.95487,58.95487 0 0 1 307.05735,98.521431 58.95487,58.95487 0 0 1 285.47708,179.05588 58.95487,58.95487 0 0 1 204.94264,157.47812 58.95487,58.95487 0 0 1 226.52291,76.943672 58.95487,58.95487 0 0 1 254.61,69.061964 Z"
     id="path4537"
     inkscape:connector-curvature="0" />
  <path
     style="color:#000000;clip-rule:nonzero;display:inline;overflow:visible;visibility:visible;opacity:1;isolation:auto;mix-blend-mode:normal;color-interpolation:sRGB;color-interpolation-filters:linearRGB;solid-color:#000000;solid-opacity:1;fill:#000000;fill-opacity:1;fill-rule:nonzero;stroke:none;stroke-width:12;stroke-linecap:square;stroke-linejoin:miter;stroke-miterlimit:4;stroke-dasharray:none;stroke-dashoffset:0;stroke-opacity:1;color-rendering:auto;image-rendering:auto;shape-rendering:auto;text-rendering:auto;enable-background:accumulate"
     d="m 255.51391,235.43128 a 20.57417,20.57417 0 0 1 18.30406,10.28151 20.57417,20.57417 0 0 1 -7.5308,28.10515 20.57417,20.57417 0 0 1 -28.10515,-7.5308 20.57417,20.57417 0 0 1 7.5308,-28.10515 20.57417,20.57417 0 0 1 9.80109,-2.75071 z"
     id="path4531"
     inkscape:connector-curvature="0" />
  <path
     inkscape:connector-curvature="0"
     id="path827"
     d="m 254.61,322.72763 a 58.95487,58.95487 0 0 1 52.44735,29.45946 58.95487,58.95487 0 0 1 -21.58027,80.53445 58.95487,58.95487 0 0 1 -80.53444,-21.57776 58.95487,58.95487 0 0 1 21.58027,-80.53444 58.95487,58.95487 0 0 1 28.08709,-7.88171 z"
     style="color:#000000;clip-rule:nonzero;display:inline;overflow:visible;visibility:visible;opacity:1;isolation:auto;mix-blend-mode:normal;color-interpolation:sRGB;color-interpolation-filters:linearRGB;solid-color:#000000;solid-opacity:1;fill:#000000;fill-opacity:1;fill-rule:nonzero;stroke:none;stroke-width:11.99999905;stroke-linecap:square;stroke-linejoin:miter;stroke-miterlimit:4;stroke-dasharray:none;stroke-dashoffset:0;stroke-opacity:1;color-rendering:auto;image-rendering:auto;shape-rendering:auto;text-rendering:auto;enable-background:accumulate" />
  <path
     inkscape:connector-curvature="0"
     id="path829"
     d="m 70.228938,256.22299 a 58.95487,58.95487 0 0 1 29.45947,-52.44736 58.95487,58.95487 0 0 1 80.534452,21.58027 58.95487,58.95487 0 0 1 -21.57777,80.53445 58.95487,58.95487 0 0 1 -80.534444,-21.58028 58.95487,58.95487 0 0 1 -7.881708,-28.08708 z"
     style="color:#000000;clip-rule:nonzero;display:inline;overflow:visible;visibility:visible;opacity:1;isolation:auto;mix-blend-mode:normal;color-interpolation:sRGB;color-interpolation-filters:linearRGB;solid-color:#000000;solid-opacity:1;fill:#000000;fill-opacity:1;fill-rule:nonzero;stroke:none;stroke-width:11.99999905;stroke-linecap:square;stroke-linejoin:miter;stroke-miterlimit:4;stroke-dasharray:none;stroke-dashoffset:0;stroke-opacity:1;color-rendering:auto;image-rendering:auto;shape-rendering:auto;text-rendering:auto;enable-background:accumulate" />
  <path
     style="color:#000000;clip-rule:nonzero;display:inline;overflow:visible;visibility:visible;opacity:1;isolation:auto;mix-blend-mode:normal;color-interpolation:sRGB;color-interpolation-filters:linearRGB;solid-color:#000000;solid-opacity:1;fill:#000000;fill-opacity:1;fill-rule:nonzero;stroke:none;stroke-width:11.99999905;stroke-linecap:square;stroke-linejoin:miter;stroke-miterlimit:4;stroke-dasharray:none;stroke-dashoffset:0;stroke-opacity:1;color-rendering:auto;image-rendering:auto;shape-rendering:auto;text-rendering:auto;enable-background:accumulate"
     d="m 323.8946,256.22299 a 58.95487,58.95487 0 0 1 29.45947,-52.44735 58.95487,58.95487 0 0 1 80.53445,21.58027 58.95487,58.95487 0 0 1 -21.57776,80.53444 58.95487,58.95487 0 0 1 -80.53444,-21.58027 58.95487,58.95487 0 0 1 -7.88172,-28.08709 z"
     id="path831"
     inkscape:connector-curvature="0" />
</svg>
