<?xml version="1.0" encoding="UTF-8" standalone="no"?>
<svg
   xmlns:dc="http://purl.org/dc/elements/1.1/"
   xmlns:cc="http://creativecommons.org/ns#"
   xmlns:rdf="http://www.w3.org/1999/02/22-rdf-syntax-ns#"
   xmlns:svg="http://www.w3.org/2000/svg"
   xmlns="http://www.w3.org/2000/svg"
   xmlns:sodipodi="http://sodipodi.sourceforge.net/DTD/sodipodi-0.dtd"
   xmlns:inkscape="http://www.inkscape.org/namespaces/inkscape"
   viewBox="0 0 511.99997 511.99997"
   version="1.1"
   id="svg14"
   sodipodi:docname="logo-filmreel.svg"
   width="512"
   height="512"
   inkscape:export-filename="C:\dev\djv-git\doc\images\logo-filmreel.png"
   inkscape:export-xdpi="7.5"
   inkscape:export-ydpi="7.5"
   inkscape:version="0.92.4 (5da689c313, 2019-01-14)">
  <metadata
     id="metadata18">
    <rdf:RDF>
      <cc:Work
         rdf:about="">
        <dc:format>image/svg+xml</dc:format>
        <dc:type
           rdf:resource="http://purl.org/dc/dcmitype/StillImage" />
        <dc:title>logo-filmreel</dc:title>
      </cc:Work>
    </rdf:RDF>
  </metadata>
  <sodipodi:namedview
     pagecolor="#ffffff"
     bordercolor="#666666"
     borderopacity="1"
     objecttolerance="10"
     gridtolerance="10"
     guidetolerance="10"
     inkscape:pageopacity="0"
     inkscape:pageshadow="2"
     inkscape:window-width="1920"
     inkscape:window-height="1137"
     id="namedview16"
     showgrid="false"
     inkscape:zoom="1.2851562"
     inkscape:cx="238.49239"
     inkscape:cy="241.21581"
     inkscape:window-x="-8"
     inkscape:window-y="-8"
     inkscape:window-maximized="1"
     inkscape:current-layer="svg14" />
  <defs
     id="defs4">
    <style
       id="style2">.cls-1{fill:#070707;}.cls-1,.cls-2{stroke:#000;stroke-miterlimit:10;}.cls-2{fill:#353535;}</style>
  </defs>
  <title
     id="title6">logo-filmreel</title>
  <path
     style="color:#000000;clip-rule:nonzero;display:inline;overflow:visible;visibility:visible;opacity:1;isolation:auto;mix-blend-mode:normal;color-interpolation:sRGB;color-interpolation-filters:linearRGB;solid-color:#000000;solid-opacity:1;fill:#f0f0f0;fill-opacity:1;fill-rule:nonzero;stroke:#3c3c3c;stroke-width:10;stroke-linecap:square;stroke-linejoin:miter;stroke-miterlimit:4;stroke-dasharray:none;stroke-dashoffset:0;stroke-opacity:1;color-rendering:auto;image-rendering:auto;shape-rendering:auto;text-rendering:auto;enable-background:accumulate"
     d="M 256,36 A 220.00021,220.00021 0 0 0 36,256 220.00021,220.00021 0 0 0 256,476 220.00021,220.00021 0 0 0 476,256 220.00021,220.00021 0 0 0 256,36 Z"
     id="path4539" />
  <path
     style="color:#000000;clip-rule:nonzero;display:inline;overflow:visible;visibility:visible;opacity:1;isolation:auto;mix-blend-mode:normal;color-interpolation:sRGB;color-interpolation-filters:linearRGB;solid-color:#000000;solid-opacity:1;fill:#3c3c3c;fill-opacity:1;fill-rule:nonzero;stroke:none;stroke-width:12;stroke-linecap:square;stroke-linejoin:miter;stroke-miterlimit:4;stroke-dasharray:none;stroke-dashoffset:0;stroke-opacity:1;color-rendering:auto;image-rendering:auto;shape-rendering:auto;text-rendering:auto;enable-background:accumulate"
     d="m 254.92188,75.283203 a 45.727103,45.727103 0 0 1 40.67968,22.849609 45.727103,45.727103 0 0 1 -16.73828,62.464848 45.727103,45.727103 0 0 1 -62.46484,-16.73633 45.727103,45.727103 0 0 1 16.73828,-62.464846 45.727103,45.727103 0 0 1 21.78516,-6.113281 z"
     id="path4537" />
  <path
     style="color:#000000;clip-rule:nonzero;display:inline;overflow:visible;visibility:visible;opacity:1;isolation:auto;mix-blend-mode:normal;color-interpolation:sRGB;color-interpolation-filters:linearRGB;solid-color:#000000;solid-opacity:1;fill:#3c3c3c;fill-opacity:1;fill-rule:nonzero;stroke:none;stroke-width:12;stroke-linecap:square;stroke-linejoin:miter;stroke-miterlimit:4;stroke-dasharray:none;stroke-dashoffset:0;stroke-opacity:1;color-rendering:auto;image-rendering:auto;shape-rendering:auto;text-rendering:auto;enable-background:accumulate"
     d="m 138.32227,142.60156 a 45.727098,45.727098 0 0 1 40.67968,22.85156 45.727098,45.727098 0 0 1 -16.73828,62.4629 45.727098,45.727098 0 0 1 -62.464842,-16.73633 45.727098,45.727098 0 0 1 16.738282,-62.46485 45.727098,45.727098 0 0 1 21.78516,-6.11328 z"
     id="path4535" />
  <path
     style="color:#000000;clip-rule:nonzero;display:inline;overflow:visible;visibility:visible;opacity:1;isolation:auto;mix-blend-mode:normal;color-interpolation:sRGB;color-interpolation-filters:linearRGB;solid-color:#000000;solid-opacity:1;fill:#3c3c3c;fill-opacity:1;fill-rule:nonzero;stroke:none;stroke-width:12;stroke-linecap:square;stroke-linejoin:miter;stroke-miterlimit:4;stroke-dasharray:none;stroke-dashoffset:0;stroke-opacity:1;color-rendering:auto;image-rendering:auto;shape-rendering:auto;text-rendering:auto;enable-background:accumulate"
     d="m 371.52148,142.60156 a 45.727108,45.727108 0 0 1 40.67969,22.85156 45.727108,45.727108 0 0 1 -16.73828,62.4629 45.727108,45.727108 0 0 1 -62.46484,-16.73633 45.727108,45.727108 0 0 1 16.73828,-62.46485 45.727108,45.727108 0 0 1 21.78515,-6.11328 z"
     id="path4533" />
  <path
     style="color:#000000;clip-rule:nonzero;display:inline;overflow:visible;visibility:visible;opacity:1;isolation:auto;mix-blend-mode:normal;color-interpolation:sRGB;color-interpolation-filters:linearRGB;solid-color:#000000;solid-opacity:1;fill:#3c3c3c;fill-opacity:1;fill-rule:nonzero;stroke:none;stroke-width:12;stroke-linecap:square;stroke-linejoin:miter;stroke-miterlimit:4;stroke-dasharray:none;stroke-dashoffset:0;stroke-opacity:1;color-rendering:auto;image-rendering:auto;shape-rendering:auto;text-rendering:auto;enable-background:accumulate"
     d="m 255.33008,227.65234 a 28.355214,28.355214 0 0 1 25.22656,14.16993 28.355214,28.355214 0 0 1 -10.37891,38.73437 28.355214,28.355214 0 0 1 -38.73437,-10.37891 28.355214,28.355214 0 0 1 10.37891,-38.73437 28.355214,28.355214 0 0 1 13.50781,-3.79102 z"
     id="path4531" />
  <path
     style="color:#000000;clip-rule:nonzero;display:inline;overflow:visible;visibility:visible;opacity:1;isolation:auto;mix-blend-mode:normal;color-interpolation:sRGB;color-interpolation-filters:linearRGB;solid-color:#000000;solid-opacity:1;fill:#3c3c3c;fill-opacity:1;fill-rule:nonzero;stroke:none;stroke-width:12;stroke-linecap:square;stroke-linejoin:miter;stroke-miterlimit:4;stroke-dasharray:none;stroke-dashoffset:0;stroke-opacity:1;color-rendering:auto;image-rendering:auto;shape-rendering:auto;text-rendering:auto;enable-background:accumulate"
     d="m 138.32227,277.23828 a 45.727093,45.727093 0 0 1 40.67968,22.85156 45.727093,45.727093 0 0 1 -16.73828,62.46485 45.727093,45.727093 0 0 1 -62.464842,-16.73828 45.727093,45.727093 0 0 1 16.738282,-62.46485 45.727093,45.727093 0 0 1 21.78516,-6.11328 z"
     id="path4529" />
  <path
     style="color:#000000;clip-rule:nonzero;display:inline;overflow:visible;visibility:visible;opacity:1;isolation:auto;mix-blend-mode:normal;color-interpolation:sRGB;color-interpolation-filters:linearRGB;solid-color:#000000;solid-opacity:1;fill:#3c3c3c;fill-opacity:1;fill-rule:nonzero;stroke:none;stroke-width:12;stroke-linecap:square;stroke-linejoin:miter;stroke-miterlimit:4;stroke-dasharray:none;stroke-dashoffset:0;stroke-opacity:1;color-rendering:auto;image-rendering:auto;shape-rendering:auto;text-rendering:auto;enable-background:accumulate"
     d="m 371.52148,277.23828 a 45.727083,45.727083 0 0 1 40.67969,22.85156 45.727083,45.727083 0 0 1 -16.73828,62.46485 45.727083,45.727083 0 0 1 -62.46484,-16.73828 45.727083,45.727083 0 0 1 16.73828,-62.46485 45.727083,45.727083 0 0 1 21.78515,-6.11328 z"
     id="path4527" />
  <path
     style="color:#000000;clip-rule:nonzero;display:inline;overflow:visible;visibility:visible;opacity:1;isolation:auto;mix-blend-mode:normal;color-interpolation:sRGB;color-interpolation-filters:linearRGB;solid-color:#000000;solid-opacity:1;fill:#3c3c3c;fill-opacity:1;fill-rule:nonzero;stroke:none;stroke-width:12;stroke-linecap:square;stroke-linejoin:miter;stroke-miterlimit:4;stroke-dasharray:none;stroke-dashoffset:0;stroke-opacity:1;color-rendering:auto;image-rendering:auto;shape-rendering:auto;text-rendering:auto;enable-background:accumulate"
     d="m 254.91992,344.55664 a 45.727088,45.727088 0 0 1 0.002,0 45.727088,45.727088 0 0 1 40.67968,22.85156 45.727088,45.727088 0 0 1 -16.73828,62.46485 45.727088,45.727088 0 0 1 -62.46484,-16.73828 45.727088,45.727088 0 0 1 16.73828,-62.46289 45.727088,45.727088 0 0 1 21.7832,-6.11524 z"
     id="path830" />
</svg>
