/* XPM */
static char * colorWheelXpm[] = {
"19 19 129 2",
"  	c None",
". 	c #000000",
"+ 	c #42FE11",
"@ 	c #78FD25",
"# 	c #94FF28",
"$ 	c #C0FE1E",
"% 	c #E3FE12",
"& 	c #041508",
"* 	c #3DFD5F",
"= 	c #4FFF58",
"- 	c #86FF4C",
"; 	c #A7FF4E",
"> 	c #D3FE44",
", 	c #F2FD39",
"' 	c #FFF52A",
") 	c #FBDD1D",
"! 	c #2AFA6A",
"~ 	c #6DFE64",
"{ 	c #9EFD76",
"] 	c #C4FE80",
"^ 	c #E6FB73",
"/ 	c #FCFD66",
"( 	c #FFE649",
"_ 	c #FBC732",
": 	c #FFA21A",
"< 	c #34FD9C",
"[ 	c #56FD95",
"} 	c #75FC93",
"| 	c #92FC9C",
"1 	c #B3FEA8",
"2 	c #D6FDA9",
"3 	c #F9FD9D",
"4 	c #FEF087",
"5 	c #FFD369",
"6 	c #FAB148",
"7 	c #FF8F2E",
"8 	c #23FFC7",
"9 	c #43FEC0",
"0 	c #6DFFBE",
"a 	c #96FBBF",
"b 	c #B4FDC3",
"c 	c #CDFBC3",
"d 	c #E9FFCA",
"e 	c #FFFBBF",
"f 	c #FDE1A9",
"g 	c #FFC089",
"h 	c #FE9B61",
"i 	c #FA753A",
"j 	c #FA5016",
"k 	c #32FBE9",
"l 	c #51FEE6",
"m 	c #7EFCE3",
"n 	c #A6FDE7",
"o 	c #C5FFE8",
"p 	c #DEFEE4",
"q 	c #F7FFEA",
"r 	c #FCEFD6",
"s 	c #FAD3BA",
"t 	c #FCAA93",
"u 	c #F88372",
"v 	c #FF5730",
"w 	c #FA352C",
"x 	c #34F7FC",
"y 	c #53FCFC",
"z 	c #82FAF9",
"A 	c #AAF9F9",
"B 	c #CDFBFB",
"C 	c #FCC1C2",
"D 	c #FD9A9B",
"E 	c #FB706F",
"F 	c #29DCFC",
"G 	c #4BDAFF",
"H 	c #79D6FC",
"I 	c #A2D6FF",
"J 	c #C0DAFF",
"K 	c #D4D5FC",
"L 	c #F2DAFF",
"M 	c #FFCBF4",
"N 	c #FBB3D9",
"O 	c #FE8DB4",
"P 	c #FD658D",
"Q 	c #FC4068",
"R 	c #FA233C",
"S 	c #17B1FA",
"T 	c #3CB1FD",
"U 	c #63AEF9",
"V 	c #88AEF9",
"W 	c #A1B0FC",
"X 	c #BEB5FE",
"Y 	c #E1BCFD",
"Z 	c #FBB0F7",
"` 	c #FF9AEA",
" .	c #FF79C9",
"..	c #FB56A3",
"+.	c #FC347F",
"@.	c #FB175E",
"#.	c #2C86FF",
"$.	c #487FFF",
"%.	c #667AFF",
"&.	c #807DFC",
"*.	c #A68DFF",
"=.	c #D092FF",
"-.	c #F287FF",
";.	c #FF74FA",
">.	c #FF57DC",
",.	c #FB3BBB",
"'.	c #FA239D",
").	c #1655FE",
"!.	c #3D5DF4",
"~.	c #4544F5",
"{.	c #6355FD",
"].	c #8C63FD",
"^.	c #B863FE",
"/.	c #E259FB",
"(.	c #FE4AFF",
"_.	c #FD3BE9",
":.	c #F628D4",
"<.	c #1B1DC7",
"[.	c #2218DE",
"}.	c #4C30E4",
"|.	c #7A3AF3",
"1.	c #A03AFF",
"2.	c #CD32FE",
"3.	c #F225FF",
"4.	c #FE1DF8",
"5.	c #5B31EB",
"6.	c #7017FF",
"7.	c #951CFC",
"8.	c #BB18F7",
"                                      ",
"                                      ",
"              . . . . .               ",
"          . . + @ # $ % . .           ",
"        & * = - - ; > , ' ) .         ",
"      . ! * = ~ { ] ^ / ( _ : .       ",
"      . < [ } | 1 2 3 4 5 6 7 .       ",
"    . 8 9 0 a b c d e f g h i j .     ",
"    . k l m n o p q r s t u v w .     ",
"    . x y z A B p q r C D E v w .     ",
"    . F G H I J K L M N O P Q R .     ",
"    . S T U V W X Y Z `  ...+.@..     ",
"      . #.$.%.&.*.=.-.;.>.,.'..       ",
"      . ).!.~.{.].^./.(._.:.'..       ",
"        . <.[.}.|.1.2.3.4.:..         ",
"          . . 5.6.7.8.3.. .           ",
"              . . . . .               ",
"                                      ",
"                                      "};
