/* XPM */
static char * colorPickerXpm[] = {
"19 19 5 1",
" 	c None",
".	c #000000",
"+	c #E5EAFF",
"@	c #6C88FF",
"#	c #FFFFFF",
"            ....   ",
"           ......  ",
"          .......  ",
"          .......  ",
"         .+......  ",
"        .+++....   ",
"       .+++++..    ",
"      .+++++.      ",
"     .+++++.       ",
"     .++++.        ",
"     .+++.         ",
"    .@...          ",
"   .##@.           ",
"  .###@@.          ",
"  .##@@@.          ",
"  .@@@@@.          ",
"  .@@@@@.          ",
"   .@@@.           ",
"    ...            "};
