/* XPM */
static char * directoryReloadXpm[] = {
"19 19 7 1",
" 	c None",
".	c #000000",
"+	c #030202",
"@	c #F0DCBE",
"#	c #0C0A09",
"$	c #060505",
"%	c #FFED87",
"     .....+        ",
"     .@@@@@#       ",
"     .@@@@@$.......",
"     .@@@@@@@@@@@@.",
"     .@@@@@@@@@@@@.",
"     .@@@@@@@@@@@@.",
"     .@@@@@@@@@@@@.",
"     .@@@@@@@@@@@@.",
"........@@@@@@@@@@.",
".%%%%%%.@@@@@@@@@@.",
".%%%%%%%.@@@@@@@@@.",
".%%%%%%.%..@@@@@@@.",
".%%%%%.%%%.@@@@@@@.",
".%%%%.%%%%.........",
".%%%.%%%%%.        ",
" .%.%%%%%%.        ",
"  .%%%%%%%.        ",
"   .%%%%%%.        ",
"    .......        "};
