/* XPM */
static char * directoryXpm[] = {
"19 19 6 1",
" 	c None",
".	c #000000",
"+	c #030202",
"@	c #F0DCBE",
"#	c #0C0A09",
"$	c #060505",
"                   ",
"                   ",
"  .....+           ",
"  .@@@@@#          ",
"  .@@@@@$.......   ",
"  .@@@@@@@@@@@@.   ",
"  .@@@@@@@@@@@@.   ",
"  .@@@@@@@@@@@@.   ",
"  .@@@@@@@@@@@@.   ",
"  .@@@@@@@@@@@@.   ",
"  .@@@@@@@@@@@@.   ",
"  .@@@@@@@@@@@@.   ",
"  .@@@@@@@@@@@@.   ",
"  .@@@@@@@@@@@@.   ",
"  .@@@@@@@@@@@@.   ",
"  ..............   ",
"                   ",
"                   ",
"                   "};
