/* XPM */
static char * fileXpm[] = {
"19 19 4 1",
" 	c None",
".	c #000000",
"+	c #FFFFFF",
"@	c #A0A0A0",
"                   ",
"                   ",
"    ...........    ",
"    .+++++++++.    ",
"    .+++++++++.    ",
"    .+@@@@@@@+.    ",
"    .+++++++++.    ",
"    .+@@@@@@@+.    ",
"    .+++++++++.    ",
"    .+@@@@@@@+.    ",
"    .+++++++++.    ",
"    .+@@@@@@@+.    ",
"    .+++++++++.    ",
"    .+@@@@@@@+.    ",
"    .+++++++++.    ",
"    .+++++++++.    ",
"    ...........    ",
"                   ",
"                   "};
