/* XPM */
static char * fileReloadXpm[] = {
"19 19 5 1",
" 	c None",
".	c #000000",
"+	c #FFFFFF",
"@	c #A0A0A0",
"#	c #FFED87",
"        ...........",
"        .+++++++++.",
"        .+++++++++.",
"        .+@@@@@@@+.",
"        .+++++++++.",
"        .+@@@@@@@+.",
"        .+++++++++.",
"        .+@@@@@@@+.",
"....... .+++++++++.",
".######..+@@@@@@@+.",
".#######.+++++++++.",
".######.#.@@@@@@@+.",
".#####.###.+++++++.",
".####.####.+++++++.",
".###.#####.........",
" .#.######.        ",
"  .#######.        ",
"   .######.        ",
"    .......        "};
