/* XPM */
static char * greyRampXpm[] = {
"19 19 90 1",
" 	c None",
".	c #000000",
"+	c #0D0E0D",
"@	c #0D0D0D",
"#	c #0D0D0C",
"$	c #0C0D0C",
"%	c #0C0C0C",
"&	c #201F20",
"*	c #201F1F",
"=	c #1F1F1F",
"-	c #1F1E1F",
";	c #1E1E1E",
">	c #323232",
",	c #323132",
"'	c #313131",
")	c #303031",
"!	c #313030",
"~	c #303030",
"{	c #444444",
"]	c #434343",
"^	c #434443",
"/	c #444343",
"(	c #424342",
"_	c #424242",
":	c #424243",
"<	c #565656",
"[	c #555655",
"}	c #555555",
"|	c #555455",
"1	c #545555",
"2	c #545454",
"3	c #686868",
"4	c #686768",
"5	c #676767",
"6	c #676666",
"7	c #666666",
"8	c #7A7A7A",
"9	c #7A797A",
"0	c #797A7A",
"a	c #797A79",
"b	c #797979",
"c	c #787978",
"d	c #787878",
"e	c #8C8C8D",
"f	c #8D8D8C",
"g	c #8C8C8B",
"h	c #8B8C8C",
"i	c #8B8B8B",
"j	c #8B8B8A",
"k	c #9E9F9E",
"l	c #9E9E9E",
"m	c #9D9D9E",
"n	c #9D9E9E",
"o	c #9D9D9D",
"p	c #B1B1B1",
"q	c #B1B1B0",
"r	c #B0B0B0",
"s	c #AFB0B0",
"t	c #B0AFB0",
"u	c #AFAFAF",
"v	c #AFAFB0",
"w	c #C3C3C3",
"x	c #C2C3C2",
"y	c #C2C2C2",
"z	c #C1C2C2",
"A	c #C2C2C1",
"B	c #C2C1C1",
"C	c #C1C2C1",
"D	c #D5D5D4",
"E	c #D5D5D5",
"F	c #D4D5D4",
"G	c #D4D4D5",
"H	c #D4D4D4",
"I	c #D3D4D3",
"J	c #D4D3D3",
"K	c #D3D3D3",
"L	c #E7E7E7",
"M	c #E7E6E7",
"N	c #E7E7E6",
"O	c #E7E6E6",
"P	c #E6E6E6",
"Q	c #E5E6E5",
"R	c #E6E5E5",
"S	c #F9F9F9",
"T	c #F9F8F9",
"U	c #F9F8F8",
"V	c #F8F8F8",
"W	c #F8F8F7",
"X	c #F7F8F8",
"Y	c #F7F7F8",
"                   ",
"    ...........    ",
"    ...........    ",
"    .+@@##$%%%.    ",
"    .&*===-;;;.    ",
"    .>,'''))!~.    ",
"    .{]^/](_:_.    ",
"    .<<[}}|}12.    ",
"    .334555567.    ",
"    .8890abbcd.    ",
"    .efghhiiij.    ",
"    .kllmmnooo.    ",
"    .pqrstuvuu.    ",
"    .wwxyzAABC.    ",
"    .DEFGHIJKK.    ",
"    .LMNOOPQPR.    ",
"    .SSTUVWXVY.    ",
"    ...........    ",
"                   "};
