/* XPM */
static char * histogramXpm[] = {
"19 19 3 1",
" 	c None",
".	c #000000",
"+	c #FFFFFF",
"                   ",
" ................. ",
" ...............+. ",
" ...............+. ",
" ...............+. ",
" ...............+. ",
" ...............+. ",
" ...............+. ",
" ..............++. ",
" ..............++. ",
" ..............++. ",
" .......++....+++. ",
" ......++++..++++. ",
" ......++++++++++. ",
" .....+++++++++++. ",
" ...+++++++++++++. ",
" .+++++++++++++++. ",
" ................. ",
"                   "};
