/* XPM */
static char * magnifyXpm[] = {
"19 19 7 1",
" 	c None",
".	c #000000",
"+	c #E5EAFF",
"@	c #FFFFFF",
"#	c #F0E2BD",
"$	c #D5BD7D",
"%	c #A39160",
"                   ",
"     ...           ",
"   ..+++..         ",
"  .++@@+++.        ",
"  .+@@@@++.        ",
" .+@@@@++++.       ",
" .+@@@+++++.       ",
" .++@++++++.       ",
"  .+++++++..       ",
"  .+++++++.#.      ",
"   ..+++..$$#.     ",
"     ....%$$$#.    ",
"         .%$$$#.   ",
"          .%$$$#.  ",
"           .%$$.   ",
"            .%.    ",
"             .     ",
"                   ",
"                   "};
