/* XPM */
static char * playbackEndXpm[] = {
"19 19 5 1",
" 	c None",
".	c #000000",
"+	c #040404",
"@	c #DCC8FF",
"#	c #0A0A0A",
"                   ",
"                   ",
"  ...+      .....  ",
"  .@@@#     .@@@.  ",
"  .@@@@#    .@@@.  ",
"  .@@@@@#   .@@@.  ",
"  .@@@@@@#  .@@@.  ",
"  .@@@@@@@# .@@@.  ",
"  .@@@@@@@@#.@@@.  ",
"  .@@@@@@@@@.@@@.  ",
"  .@@@@@@@@#.@@@.  ",
"  .@@@@@@@# .@@@.  ",
"  .@@@@@@#  .@@@.  ",
"  .@@@@@#   .@@@.  ",
"  .@@@@#    .@@@.  ",
"  .@@@#     .@@@.  ",
"  ...+      .....  ",
"                   ",
"                   "};
