/* XPM */
static char * playbackFrameShuttle0Xpm[] = {
"19 19 3 1",
" 	c None",
".	c #000000",
"+	c #DCC8FF",
"                   ",
"       .....       ",
"     ..+++++..     ",
"    .+++++++++.    ",
"   .++++...++++.   ",
"  .++++.....++++.  ",
"  .++++.....++++.  ",
" .+++++.....+++++. ",
" .++++++...++++++. ",
" .+++++++++++++++. ",
" .+++++++++++++++. ",
" .+++++++++++++++. ",
"  .+++++++++++++.  ",
"  .+++++++++++++.  ",
"   .+++++++++++.   ",
"    .+++++++++.    ",
"     ..+++++..     ",
"       .....       ",
"                   "};
