/* XPM */
static char * playbackInOutXpm[] = {
"11 11 2 1",
"   c None",
".  c #000000",
"           ",
" ...   ... ",
" ...   ... ",
" ...   ... ",
" ...   ... ",
" ...   ... ",
" ...   ... ",
" ...   ... ",
" ...   ... ",
" ...   ... ",
"           "};
