/* XPM */
static char * playbackLoopRepeatXpm[] = {
"19 11 2 1",
" 	c None",
".	c #000000",
"            ..     ",
"            ...    ",
"            ....   ",
"  ...............  ",
" ................. ",
" ................  ",
" ...        ....   ",
" ...        ...    ",
" .........  ..     ",
" .........         ",
"  ........         "};
