/* XPM */
static char * playbackForwardXpm[] = {
"19 19 6 1",
" 	c None",
".	c #000000",
"+	c #040404",
"@	c #A0FFC8",
"#	c #0A0A0A",
"$	c #050505",
"                   ",
"                   ",
"    ...+           ",
"    .@@@#          ",
"    .@@@@#         ",
"    .@@@@@#        ",
"    .@@@@@@#       ",
"    .@@@@@@@#      ",
"    .@@@@@@@@#     ",
"    .@@@@@@@@@$    ",
"    .@@@@@@@@#     ",
"    .@@@@@@@#      ",
"    .@@@@@@#       ",
"    .@@@@@#        ",
"    .@@@@#         ",
"    .@@@#          ",
"    ...+           ",
"                   ",
"                   "};
