/* XPM */
static char * playbackPrevXpm[] = {
"19 19 6 1",
" 	c None",
".	c #040404",
"+	c #000000",
"@	c #0A0A0A",
"#	c #DCC8FF",
"$	c #050505",
"                   ",
"                   ",
"         .+++++++  ",
"        @###+###+  ",
"       @####+###+  ",
"      @#####+###+  ",
"     @######+###+  ",
"    @#######+###+  ",
"   @########+###+  ",
"  $#########+###+  ",
"   @########+###+  ",
"    @#######+###+  ",
"     @######+###+  ",
"      @#####+###+  ",
"       @####+###+  ",
"        @###+###+  ",
"         .+++++++  ",
"                   ",
"                   "};
