/* XPM */
static char * toolXInactiveXpm[] = {
"9 9 2 1",
" 	c None",
".	c #000000",
" ..   .. ",
".... ....",
".........",
" ....... ",
"  .....  ",
" ....... ",
".........",
".... ....",
" ..   .. "};
