/* XPM */
static char * toolLockXpm[] = {
"9 11 2 1",
" 	c None",
".	c #000000",
"   ...   ",
"  .....  ",
" ... ... ",
" ..   .. ",
" ..   .. ",
" ..   .. ",
".........",
".........",
".........",
".........",
"........."};
