/* XPM */
static char * toolIncXpm[] = {
"9 6 2 1",
" 	c None",
".	c #000000",
"    .    ",
"   ...   ",
"  .....  ",
" ....... ",
".........",
"........."};
