/* XPM */
static char * toolDecXpm[] = {
"9 6 2 1",
" 	c None",
".	c #000000",
".........",
".........",
" ....... ",
"  .....  ",
"   ...   ",
"    .    "};
