/* XPM */
static char * viewFitXpm[] = {
"19 19 8 1",
" 	c None",
".	c #000000",
"+	c #E5EAFF",
"@	c #B7BBCC",
"#	c #FFFFFF",
"$	c #F0E2BD",
"%	c #D5BD7D",
"&	c #A39160",
"       ...         ",
"     ..+++..       ",
"    .@+##++@.      ",
"    .+####++.      ",
"   .+####++++.     ",
"   .+###+++++.     ",
"   .++#++++++.     ",
"    .+++++++..     ",
"...........@.$.    ",
".#########..%%$.   ",
".#########.&%%%$.  ",
".##.....##..&%%%$. ",
".##.....##. .&%%%$.",
".##.....##.  .&%%. ",
".##.....##.   .&.  ",
".##.....##.    .   ",
".#########.        ",
".#########.        ",
"...........        "};
