/* XPM */
static char * viewZoomInXpm[] = {
"19 19 9 1",
" 	c None",
".	c #000000",
"+	c #E5EAFF",
"@	c #B7BBCC",
"#	c #FFFFFF",
"$	c #F0E2BD",
"%	c #FFED87",
"&	c #D5BD7D",
"*	c #A39160",
"       ...         ",
"     ..+++..       ",
"    .@+##++@.      ",
"    .+####++.      ",
"   .+####++++.     ",
"   .+###+++++.     ",
"   .++#++++++.     ",
"    .+++++++..     ",
"   .....+++@.$.    ",
"   .%%%.++..&&$.   ",
"   .%%%....*&&&$.  ",
"....%%%.....*&&&$. ",
".%%%%%%%%%. .*&&&$.",
".%%%%%%%%%.  .*&&. ",
".%%%%%%%%%.   .*.  ",
"....%%%....    .   ",
"   .%%%.           ",
"   .%%%.           ",
"   .....           "};
