/* XPM */
static char * windowNewXpm[] = {
"19 19 5 1",
" 	c None",
".	c #000000",
"+	c #B8BCDB",
"@	c #FFFFFF",
"#	c #FFED87",
"     ..............",
"     .++++++++++++.",
"     .++++++++++++.",
"     ..............",
"     .@@@@@@@@@@@@.",
"     .@@@@@@@@@@@@.",
"     .@@@@@@@@@@@@.",
"     .@@@@@@@@@@@@.",
"   .....@@@@@@@@@@.",
"   .###.@@@@@@@@@@.",
"   .###.@@@@@@@@@@.",
"....###....@@@@@@@.",
".#########.@@@@@@@.",
".#########.........",
".#########.        ",
"....###....        ",
"   .###.           ",
"   .###.           ",
"   .....           "};
