/* XPM */
static char * windowFitXpm[] = {
"19 19 4 1",
" 	c None",
".	c #000000",
"+	c #B8BCDB",
"@	c #FFFFFF",
"     ..............",
"     .++++++++++++.",
"     .++++++++++++.",
"     .++++++++++++.",
"     ..............",
"     .@@@@@@@@@@@@.",
"     .@@@@@@@@@@@@.",
"     .@@@@@@@@@@@@.",
"...........@@@@@@@.",
".@@@@@@@@@.@@@@@@@.",
".@@@@@@@@@.@@@@@@@.",
".@@.....@@.@@@@@@@.",
".@@.....@@.@@@@@@@.",
".@@.....@@.........",
".@@.....@@.        ",
".@@.....@@.        ",
".@@@@@@@@@.        ",
".@@@@@@@@@.        ",
"...........        "};
