/* XPM */
static char * windowCloseXpm[] = {
"19 19 5 1",
" 	c None",
".	c #000000",
"+	c #B8BCDB",
"@	c #FFFFFF",
"#	c #FF8787",
"     ..............",
"     .++++++++++++.",
"     .++++++++++++.",
"     ..............",
"     .@@@@@@@@@@@@.",
"     .@@@@@@@@@@@@.",
"     .@@@@@@@@@@@@.",
"     .@@@@@@@@@@@@.",
"  .. .@..@@@@@@@@@.",
" .##...##.@@@@@@@@.",
".####.####.@@@@@@@.",
".#########.@@@@@@@.",
" .#######.@@@@@@@@.",
"  .#####...........",
" .#######.         ",
".#########.        ",
".####.####.        ",
" .##. .##.         ",
"  ..   ..          "};
