<?xml version="1.0" encoding="UTF-8" standalone="no"?>
<!-- Created with Inkscape (http://www.inkscape.org/) -->

<svg
   xmlns:dc="http://purl.org/dc/elements/1.1/"
   xmlns:cc="http://creativecommons.org/ns#"
   xmlns:rdf="http://www.w3.org/1999/02/22-rdf-syntax-ns#"
   xmlns:svg="http://www.w3.org/2000/svg"
   xmlns="http://www.w3.org/2000/svg"
   xmlns:xlink="http://www.w3.org/1999/xlink"
   xmlns:sodipodi="http://sodipodi.sourceforge.net/DTD/sodipodi-0.dtd"
   xmlns:inkscape="http://www.inkscape.org/namespaces/inkscape"
   width="200"
   height="25"
   id="svg2"
   sodipodi:version="0.32"
   inkscape:version="0.92.2 (5c3e80d, 2017-08-06)"
   version="1.0"
   sodipodi:docname="ShuttleIcon.svg"
   inkscape:output_extension="org.inkscape.output.svg.inkscape"
   inkscape:export-filename="Shuttle7Icon.png"
   inkscape:export-xdpi="96"
   inkscape:export-ydpi="96">
  <defs
     id="defs4">
    <linearGradient
       inkscape:collect="always"
       id="linearGradient3640">
      <stop
         style="stop-color:#dcdcdc;stop-opacity:1;"
         offset="0"
         id="stop3642" />
      <stop
         style="stop-color:#dcdcdc;stop-opacity:0;"
         offset="1"
         id="stop3644" />
    </linearGradient>
    <linearGradient
       id="linearGradient4535">
      <stop
         style="stop-color:#ffecb9;stop-opacity:1;"
         offset="0"
         id="stop4537" />
      <stop
         style="stop-color:#f0af00;stop-opacity:1;"
         offset="1"
         id="stop4539" />
    </linearGradient>
    <linearGradient
       id="linearGradient3924">
      <stop
         style="stop-color:#f0f0f0;stop-opacity:1;"
         offset="0"
         id="stop3926" />
      <stop
         style="stop-color:#d2d2d2;stop-opacity:1;"
         offset="1"
         id="stop3928" />
    </linearGradient>
    <inkscape:perspective
       sodipodi:type="inkscape:persp3d"
       inkscape:vp_x="0 : 526.18109 : 1"
       inkscape:vp_y="0 : 1000 : 0"
       inkscape:vp_z="744.09448 : 526.18109 : 1"
       inkscape:persp3d-origin="372.04724 : 350.78739 : 1"
       id="perspective10" />
    <linearGradient
       inkscape:collect="always"
       xlink:href="#linearGradient4535"
       id="linearGradient4541"
       x1="16.037289"
       y1="6.9566169"
       x2="16.012434"
       y2="16.841362"
       gradientUnits="userSpaceOnUse"
       gradientTransform="translate(-0.951418)" />
    <inkscape:perspective
       id="perspective3610"
       inkscape:persp3d-origin="0.5 : 0.33333333 : 1"
       inkscape:vp_z="1 : 0.5 : 1"
       inkscape:vp_y="0 : 1000 : 0"
       inkscape:vp_x="0 : 0.5 : 1"
       sodipodi:type="inkscape:persp3d" />
    <linearGradient
       inkscape:collect="always"
       xlink:href="#linearGradient3640"
       id="linearGradient3646"
       x1="2"
       y1="12.5"
       x2="23"
       y2="12.5"
       gradientUnits="userSpaceOnUse" />
    <inkscape:perspective
       id="perspective3656"
       inkscape:persp3d-origin="0.5 : 0.33333333 : 1"
       inkscape:vp_z="1 : 0.5 : 1"
       inkscape:vp_y="0 : 1000 : 0"
       inkscape:vp_x="0 : 0.5 : 1"
       sodipodi:type="inkscape:persp3d" />
    <inkscape:perspective
       id="perspective3714"
       inkscape:persp3d-origin="0.5 : 0.33333333 : 1"
       inkscape:vp_z="1 : 0.5 : 1"
       inkscape:vp_y="0 : 1000 : 0"
       inkscape:vp_x="0 : 0.5 : 1"
       sodipodi:type="inkscape:persp3d" />
    <linearGradient
       inkscape:collect="always"
       xlink:href="#linearGradient3640"
       id="linearGradient3742"
       gradientUnits="userSpaceOnUse"
       x1="2"
       y1="12.5"
       x2="23"
       y2="12.5"
       gradientTransform="matrix(0.8,0,0,0.8,2.5,-0.49999996)" />
    <linearGradient
       inkscape:collect="always"
       xlink:href="#linearGradient3640"
       id="linearGradient3774"
       gradientUnits="userSpaceOnUse"
       gradientTransform="matrix(0.6,0,0,0.6,5,2)"
       x1="2"
       y1="12.5"
       x2="23"
       y2="12.5" />
    <inkscape:perspective
       id="perspective3768"
       inkscape:persp3d-origin="0.5 : 0.33333333 : 1"
       inkscape:vp_z="1 : 0.5 : 1"
       inkscape:vp_y="0 : 1000 : 0"
       inkscape:vp_x="0 : 0.5 : 1"
       sodipodi:type="inkscape:persp3d" />
  </defs>
  <sodipodi:namedview
     id="base"
     pagecolor="#ffffff"
     bordercolor="#666666"
     borderopacity="1.0"
     gridtolerance="10000"
     guidetolerance="10"
     objecttolerance="10"
     inkscape:pageopacity="0.0"
     inkscape:pageshadow="2"
     inkscape:zoom="6.78"
     inkscape:cx="100"
     inkscape:cy="12.5"
     inkscape:document-units="px"
     inkscape:current-layer="Shuttle7Icon"
     showgrid="true"
     inkscape:window-width="1920"
     inkscape:window-height="1101"
     inkscape:window-x="0"
     inkscape:window-y="28"
     inkscape:snap-nodes="true"
     inkscape:snap-bbox="true"
     inkscape:window-maximized="1"
     inkscape:bbox-nodes="true">
    <inkscape:grid
       type="xygrid"
       id="grid2383"
       visible="true"
       enabled="true"
       empspacing="5"
       snapvisiblegridlinesonly="true" />
  </sodipodi:namedview>
  <metadata
     id="metadata7">
    <rdf:RDF>
      <cc:Work
         rdf:about="">
        <dc:format>image/svg+xml</dc:format>
        <dc:type
           rdf:resource="http://purl.org/dc/dcmitype/StillImage" />
        <dc:title></dc:title>
      </cc:Work>
    </rdf:RDF>
  </metadata>
  <g
     inkscape:label="Layer 1"
     inkscape:groupmode="layer"
     id="layer1"
     transform="translate(0,3)">
    <g
       id="Shuttle0Icon"
       inkscape:label="#g836">
      <rect
         y="-3"
         x="0"
         height="25"
         width="25"
         id="rect832"
         style="color:#000000;clip-rule:nonzero;display:inline;overflow:visible;visibility:visible;opacity:1;isolation:auto;mix-blend-mode:normal;color-interpolation:sRGB;color-interpolation-filters:linearRGB;solid-color:#000000;solid-opacity:1;fill:#000000;fill-opacity:0;fill-rule:nonzero;stroke:none;stroke-width:26.51650429;stroke-linecap:square;stroke-linejoin:miter;stroke-miterlimit:4;stroke-dasharray:none;stroke-dashoffset:0;stroke-opacity:1;color-rendering:auto;image-rendering:auto;shape-rendering:auto;text-rendering:auto;enable-background:accumulate" />
      <path
         inkscape:connector-curvature="0"
         id="path1177"
         d="M 12.5,1 A 8.5,8.5 0 0 0 4,9.5 8.5,8.5 0 0 0 12.5,18 8.5,8.5 0 0 0 21,9.5 8.5,8.5 0 0 0 12.5,1 Z m 0,1.7894736 A 2.2368422,2.2368422 0 0 1 14.736842,5.0263158 2.2368422,2.2368422 0 0 1 12.5,7.2631578 2.2368422,2.2368422 0 0 1 10.263158,5.0263158 2.2368422,2.2368422 0 0 1 12.5,2.7894736 Z"
         style="opacity:1;vector-effect:none;fill:#000000;fill-opacity:1;fill-rule:nonzero;stroke:none;stroke-width:1.0625;stroke-linecap:square;stroke-linejoin:miter;stroke-miterlimit:4;stroke-dasharray:none;stroke-dashoffset:0;stroke-opacity:1" />
    </g>
    <g
       inkscape:label="#g836"
       id="Shuttle1Icon"
       transform="translate(25)">
      <rect
         style="color:#000000;clip-rule:nonzero;display:inline;overflow:visible;visibility:visible;opacity:1;isolation:auto;mix-blend-mode:normal;color-interpolation:sRGB;color-interpolation-filters:linearRGB;solid-color:#000000;solid-opacity:1;fill:#000000;fill-opacity:0;fill-rule:nonzero;stroke:none;stroke-width:26.51650429;stroke-linecap:square;stroke-linejoin:miter;stroke-miterlimit:4;stroke-dasharray:none;stroke-dashoffset:0;stroke-opacity:1;color-rendering:auto;image-rendering:auto;shape-rendering:auto;text-rendering:auto;enable-background:accumulate"
         id="rect838"
         width="25"
         height="25"
         x="0"
         y="-3" />
      <path
         style="opacity:1;vector-effect:none;fill:#000000;fill-opacity:1;fill-rule:nonzero;stroke:none;stroke-width:1.0625;stroke-linecap:square;stroke-linejoin:miter;stroke-miterlimit:4;stroke-dasharray:none;stroke-dashoffset:0;stroke-opacity:1"
         d="m 18.510408,3.4895924 a 8.5,8.5 0 0 0 -12.0208156,0 8.5,8.5 0 0 0 0,12.0208156 8.5,8.5 0 0 0 12.0208156,0 8.5,8.5 0 0 0 0,-12.0208156 z m -1.265349,1.2653489 a 2.2368422,2.2368422 0 0 1 0,3.1633724 2.2368422,2.2368422 0 0 1 -3.163373,0 2.2368422,2.2368422 0 0 1 0,-3.1633723 2.2368422,2.2368422 0 0 1 3.163373,-1e-7 z"
         id="path840"
         inkscape:connector-curvature="0" />
    </g>
    <g
       transform="translate(50)"
       id="Shuttle2Icon"
       inkscape:label="#g836">
      <rect
         y="-3"
         x="0"
         height="25"
         width="25"
         id="rect844"
         style="color:#000000;clip-rule:nonzero;display:inline;overflow:visible;visibility:visible;opacity:1;isolation:auto;mix-blend-mode:normal;color-interpolation:sRGB;color-interpolation-filters:linearRGB;solid-color:#000000;solid-opacity:1;fill:#000000;fill-opacity:0;fill-rule:nonzero;stroke:none;stroke-width:26.51650429;stroke-linecap:square;stroke-linejoin:miter;stroke-miterlimit:4;stroke-dasharray:none;stroke-dashoffset:0;stroke-opacity:1;color-rendering:auto;image-rendering:auto;shape-rendering:auto;text-rendering:auto;enable-background:accumulate" />
      <path
         inkscape:connector-curvature="0"
         id="path846"
         d="M 21,9.5 A 8.5,8.5 0 0 0 12.5,1 8.5,8.5 0 0 0 4,9.5 8.5,8.5 0 0 0 12.5,18 8.5,8.5 0 0 0 21,9.5 Z m -1.789474,0 A 2.2368422,2.2368422 0 0 1 16.973684,11.736842 2.2368422,2.2368422 0 0 1 14.736842,9.5 2.2368422,2.2368422 0 0 1 16.973684,7.263158 2.2368422,2.2368422 0 0 1 19.210526,9.5 Z"
         style="opacity:1;vector-effect:none;fill:#000000;fill-opacity:1;fill-rule:nonzero;stroke:none;stroke-width:1.0625;stroke-linecap:square;stroke-linejoin:miter;stroke-miterlimit:4;stroke-dasharray:none;stroke-dashoffset:0;stroke-opacity:1" />
    </g>
    <g
       inkscape:label="#g836"
       id="Shuttle3Icon"
       transform="translate(75)">
      <rect
         style="color:#000000;clip-rule:nonzero;display:inline;overflow:visible;visibility:visible;opacity:1;isolation:auto;mix-blend-mode:normal;color-interpolation:sRGB;color-interpolation-filters:linearRGB;solid-color:#000000;solid-opacity:1;fill:#000000;fill-opacity:0;fill-rule:nonzero;stroke:none;stroke-width:26.51650429;stroke-linecap:square;stroke-linejoin:miter;stroke-miterlimit:4;stroke-dasharray:none;stroke-dashoffset:0;stroke-opacity:1;color-rendering:auto;image-rendering:auto;shape-rendering:auto;text-rendering:auto;enable-background:accumulate"
         id="rect850"
         width="25"
         height="25"
         x="0"
         y="-3" />
      <path
         style="opacity:1;vector-effect:none;fill:#000000;fill-opacity:1;fill-rule:nonzero;stroke:none;stroke-width:1.0625;stroke-linecap:square;stroke-linejoin:miter;stroke-miterlimit:4;stroke-dasharray:none;stroke-dashoffset:0;stroke-opacity:1"
         d="m 18.510408,15.510408 a 8.5,8.5 0 0 0 0,-12.0208156 8.5,8.5 0 0 0 -12.0208156,0 8.5,8.5 0 0 0 0,12.0208156 8.5,8.5 0 0 0 12.0208156,0 z m -1.265349,-1.265349 a 2.2368422,2.2368422 0 0 1 -3.163373,0 2.2368422,2.2368422 0 0 1 0,-3.163373 2.2368422,2.2368422 0 0 1 3.163373,0 2.2368422,2.2368422 0 0 1 0,3.163373 z"
         id="path852"
         inkscape:connector-curvature="0" />
    </g>
    <g
       transform="translate(100)"
       id="Shuttle4Icon"
       inkscape:label="#g836">
      <rect
         y="-3"
         x="0"
         height="25"
         width="25"
         id="rect856"
         style="color:#000000;clip-rule:nonzero;display:inline;overflow:visible;visibility:visible;opacity:1;isolation:auto;mix-blend-mode:normal;color-interpolation:sRGB;color-interpolation-filters:linearRGB;solid-color:#000000;solid-opacity:1;fill:#000000;fill-opacity:0;fill-rule:nonzero;stroke:none;stroke-width:26.51650429;stroke-linecap:square;stroke-linejoin:miter;stroke-miterlimit:4;stroke-dasharray:none;stroke-dashoffset:0;stroke-opacity:1;color-rendering:auto;image-rendering:auto;shape-rendering:auto;text-rendering:auto;enable-background:accumulate" />
      <path
         inkscape:connector-curvature="0"
         id="path858"
         d="M 12.5,18 A 8.5,8.5 0 0 0 21,9.5 8.5,8.5 0 0 0 12.5,1 8.5,8.5 0 0 0 4,9.5 8.5,8.5 0 0 0 12.5,18 Z m 0,-1.789474 A 2.2368422,2.2368422 0 0 1 10.263158,13.973684 2.2368422,2.2368422 0 0 1 12.5,11.736842 2.2368422,2.2368422 0 0 1 14.736842,13.973684 2.2368422,2.2368422 0 0 1 12.5,16.210526 Z"
         style="opacity:1;vector-effect:none;fill:#000000;fill-opacity:1;fill-rule:nonzero;stroke:none;stroke-width:1.0625;stroke-linecap:square;stroke-linejoin:miter;stroke-miterlimit:4;stroke-dasharray:none;stroke-dashoffset:0;stroke-opacity:1" />
    </g>
    <g
       inkscape:label="#g836"
       id="Shuttle5Icon"
       transform="translate(125)">
      <rect
         style="color:#000000;clip-rule:nonzero;display:inline;overflow:visible;visibility:visible;opacity:1;isolation:auto;mix-blend-mode:normal;color-interpolation:sRGB;color-interpolation-filters:linearRGB;solid-color:#000000;solid-opacity:1;fill:#000000;fill-opacity:0;fill-rule:nonzero;stroke:none;stroke-width:26.51650429;stroke-linecap:square;stroke-linejoin:miter;stroke-miterlimit:4;stroke-dasharray:none;stroke-dashoffset:0;stroke-opacity:1;color-rendering:auto;image-rendering:auto;shape-rendering:auto;text-rendering:auto;enable-background:accumulate"
         id="rect862"
         width="25"
         height="25"
         x="0"
         y="-3" />
      <path
         style="opacity:1;vector-effect:none;fill:#000000;fill-opacity:1;fill-rule:nonzero;stroke:none;stroke-width:1.0625;stroke-linecap:square;stroke-linejoin:miter;stroke-miterlimit:4;stroke-dasharray:none;stroke-dashoffset:0;stroke-opacity:1"
         d="m 6.4895924,15.510408 a 8.5,8.5 0 0 0 12.0208156,0 8.5,8.5 0 0 0 0,-12.0208156 8.5,8.5 0 0 0 -12.0208156,0 8.5,8.5 0 0 0 0,12.0208156 z m 1.2653489,-1.265349 a 2.2368422,2.2368422 0 0 1 1e-7,-3.163373 2.2368422,2.2368422 0 0 1 3.1633726,0 2.2368422,2.2368422 0 0 1 0,3.163373 2.2368422,2.2368422 0 0 1 -3.1633727,0 z"
         id="path864"
         inkscape:connector-curvature="0" />
    </g>
    <g
       transform="translate(150)"
       id="Shuttle6Icon"
       inkscape:label="#g836">
      <rect
         y="-3"
         x="0"
         height="25"
         width="25"
         id="rect874"
         style="color:#000000;clip-rule:nonzero;display:inline;overflow:visible;visibility:visible;opacity:1;isolation:auto;mix-blend-mode:normal;color-interpolation:sRGB;color-interpolation-filters:linearRGB;solid-color:#000000;solid-opacity:1;fill:#000000;fill-opacity:0;fill-rule:nonzero;stroke:none;stroke-width:26.51650429;stroke-linecap:square;stroke-linejoin:miter;stroke-miterlimit:4;stroke-dasharray:none;stroke-dashoffset:0;stroke-opacity:1;color-rendering:auto;image-rendering:auto;shape-rendering:auto;text-rendering:auto;enable-background:accumulate" />
      <path
         inkscape:connector-curvature="0"
         id="path876"
         d="M 4,9.5000001 A 8.5,8.5 0 0 0 12.5,18 8.5,8.5 0 0 0 21.000001,9.5 8.5,8.5 0 0 0 12.5,0.99999993 8.5,8.5 0 0 0 4,9.5000001 Z m 1.7894736,-2e-7 A 2.2368422,2.2368422 0 0 1 8.0263159,7.2631579 2.2368422,2.2368422 0 0 1 10.263158,9.4999995 2.2368422,2.2368422 0 0 1 8.0263159,11.736842 2.2368422,2.2368422 0 0 1 5.7894736,9.4999999 Z"
         style="opacity:1;vector-effect:none;fill:#000000;fill-opacity:1;fill-rule:nonzero;stroke:none;stroke-width:1.0625;stroke-linecap:square;stroke-linejoin:miter;stroke-miterlimit:4;stroke-dasharray:none;stroke-dashoffset:0;stroke-opacity:1" />
    </g>
    <g
       inkscape:label="#g836"
       id="Shuttle7Icon"
       transform="translate(175)">
      <rect
         style="color:#000000;clip-rule:nonzero;display:inline;overflow:visible;visibility:visible;opacity:1;isolation:auto;mix-blend-mode:normal;color-interpolation:sRGB;color-interpolation-filters:linearRGB;solid-color:#000000;solid-opacity:1;fill:#000000;fill-opacity:0;fill-rule:nonzero;stroke:none;stroke-width:26.51650429;stroke-linecap:square;stroke-linejoin:miter;stroke-miterlimit:4;stroke-dasharray:none;stroke-dashoffset:0;stroke-opacity:1;color-rendering:auto;image-rendering:auto;shape-rendering:auto;text-rendering:auto;enable-background:accumulate"
         id="rect880"
         width="25"
         height="25"
         x="0"
         y="-3" />
      <path
         style="opacity:1;vector-effect:none;fill:#000000;fill-opacity:1;fill-rule:nonzero;stroke:none;stroke-width:1.0625;stroke-linecap:square;stroke-linejoin:miter;stroke-miterlimit:4;stroke-dasharray:none;stroke-dashoffset:0;stroke-opacity:1"
         d="m 6.4895924,3.4895924 a 8.5,8.5 0 0 0 0,12.0208156 8.5,8.5 0 0 0 12.0208156,0 8.5,8.5 0 0 0 0,-12.0208156 8.5,8.5 0 0 0 -12.0208156,0 z m 1.2653489,1.2653489 a 2.2368422,2.2368422 0 0 1 3.1633727,1e-7 2.2368422,2.2368422 0 0 1 0,3.1633723 2.2368422,2.2368422 0 0 1 -3.1633726,0 2.2368422,2.2368422 0 0 1 -1e-7,-3.1633724 z"
         id="path882"
         inkscape:connector-curvature="0" />
    </g>
  </g>
</svg>
