<?xml version="1.0" encoding="UTF-8" standalone="no"?>
<svg
   xmlns:dc="http://purl.org/dc/elements/1.1/"
   xmlns:cc="http://creativecommons.org/ns#"
   xmlns:rdf="http://www.w3.org/1999/02/22-rdf-syntax-ns#"
   xmlns:svg="http://www.w3.org/2000/svg"
   xmlns="http://www.w3.org/2000/svg"
   xmlns:sodipodi="http://sodipodi.sourceforge.net/DTD/sodipodi-0.dtd"
   xmlns:inkscape="http://www.inkscape.org/namespaces/inkscape"
   viewBox="0 0 256 256"
   version="1.1"
   id="svg6269"
   sodipodi:docname="djv-app-icon-256.svg"
   inkscape:export-filename="C:\dev\djv-git\etc\Icons\djv-app-icon-256.png"
   inkscape:export-xdpi="96"
   inkscape:export-ydpi="96"
   inkscape:version="0.92.4 (5da689c313, 2019-01-14)">
  <metadata
     id="metadata6275">
    <rdf:RDF>
      <cc:Work
         rdf:about="">
        <dc:format>image/svg+xml</dc:format>
        <dc:type
           rdf:resource="http://purl.org/dc/dcmitype/StillImage" />
      </cc:Work>
    </rdf:RDF>
  </metadata>
  <defs
     id="defs6273" />
  <sodipodi:namedview
     pagecolor="#ffffff"
     bordercolor="#666666"
     borderopacity="1"
     objecttolerance="10"
     gridtolerance="10"
     guidetolerance="10"
     inkscape:pageopacity="0"
     inkscape:pageshadow="2"
     inkscape:window-width="1920"
     inkscape:window-height="1137"
     id="namedview6271"
     showgrid="false"
     inkscape:zoom="0.921875"
     inkscape:cx="-52.610169"
     inkscape:cy="128"
     inkscape:window-x="-8"
     inkscape:window-y="-8"
     inkscape:window-maximized="1"
     inkscape:current-layer="svg6269" />
  <title
     id="title6264">djv-app-icon-256</title>
  <g
     id="Layer_2"
     data-name="Layer 2"
     style="fill:#000000;fill-opacity:1">
    <g
       id="icon_designs.00"
       data-name="icon designs.00"
       style="fill:#000000;fill-opacity:1">
      <path
         id="djv-app-icon-256"
         d="M256,128A128,128,0,1,1,128,0,128,128,0,0,1,256,128Zm-84.45-27.8,27.6-6.69A22.67,22.67,0,0,0,214.32,61.9a63.68,63.68,0,0,0-50.13-36.43,22.7,22.7,0,0,0-25.38,24.21L141,78A24.79,24.79,0,0,0,171.55,100.2Zm-32.1-80.53a11.45,11.45,0,0,0-22.9,0c0,4.85,4.61,9.83,8.15,15a4,4,0,0,0,6.6,0C134.84,29.5,139.45,24.52,139.45,19.67Zm95.11,85.74a11.44,11.44,0,1,0-7.07-21.77c-4.61,1.5-7.93,7.42-11.72,12.38a4,4,0,0,0,2,6.26C223.79,104.06,230,106.91,234.56,105.41Zm-52.15,117a11.45,11.45,0,1,0,18.52-13.46c-2.85-3.92-9.5-5.24-15.39-7.32a4,4,0,0,0-5.33,3.88C180.36,211.7,179.57,218.45,182.41,222.37ZM55.07,208.91a11.45,11.45,0,0,0,18.52,13.46c2.84-3.92,2-10.67,2.2-16.9a4,4,0,0,0-5.33-3.88C64.57,203.67,57.92,205,55.07,208.91ZM28.51,83.64a11.44,11.44,0,0,0-7.07,21.77c4.61,1.5,10.77-1.35,16.75-3.13a4,4,0,0,0,2-6.26C36.44,91.06,33.12,85.14,28.51,83.64Zm139.38,77.19L182.79,185a22.68,22.68,0,0,0,34.75,4.66,63.66,63.66,0,0,0,19.15-58.93,22.69,22.69,0,0,0-30.86-16.66l-26.26,10.81A24.8,24.8,0,0,0,167.89,160.83ZM109.1,176.09,90.71,197.72A22.68,22.68,0,0,0,97,232.22a63.71,63.71,0,0,0,62,0,22.68,22.68,0,0,0,6.31-34.5L146.9,176.09A24.81,24.81,0,0,0,109.1,176.09Zm-32.67-51.2L50.17,114.08a22.69,22.69,0,0,0-30.86,16.66,63.66,63.66,0,0,0,19.15,58.93A22.68,22.68,0,0,0,73.21,185l14.9-24.18A24.8,24.8,0,0,0,76.43,124.89ZM115,78l2.16-28.31A22.69,22.69,0,0,0,91.81,25.47,63.68,63.68,0,0,0,41.68,61.9,22.67,22.67,0,0,0,56.85,93.51l27.6,6.69A24.79,24.79,0,0,0,115,78Zm13,15.45a9,9,0,1,0,9,9A9,9,0,0,0,128,93.44Zm32.87,23.88a9,9,0,1,0-5.75,11.29A9,9,0,0,0,160.87,117.32ZM148.31,156a9,9,0,1,0-12.51-2A9,9,0,0,0,148.31,156Zm-40.62,0a9,9,0,1,0-2-12.52A9,9,0,0,0,107.69,156ZM95.13,117.32a9,9,0,1,0,11.29-5.75A9,9,0,0,0,95.13,117.32Z"
         style="fill:#000000;fill-opacity:1" />
    </g>
  </g>
</svg>
