<?xml version="1.0" encoding="UTF-8" standalone="no"?>
<svg
   xmlns:dc="http://purl.org/dc/elements/1.1/"
   xmlns:cc="http://creativecommons.org/ns#"
   xmlns:rdf="http://www.w3.org/1999/02/22-rdf-syntax-ns#"
   xmlns:svg="http://www.w3.org/2000/svg"
   xmlns="http://www.w3.org/2000/svg"
   xmlns:sodipodi="http://sodipodi.sourceforge.net/DTD/sodipodi-0.dtd"
   xmlns:inkscape="http://www.inkscape.org/namespaces/inkscape"
   viewBox="0 0 1024 1024"
   version="1.1"
   id="svg7407"
   sodipodi:docname="djv-app-icon-1024.svg"
   inkscape:export-filename="C:\dev\djv-git\etc\Icons\djv-app-icon-1024.png"
   inkscape:export-xdpi="96"
   inkscape:export-ydpi="96"
   inkscape:version="0.92.4 (5da689c313, 2019-01-14)">
  <metadata
     id="metadata7413">
    <rdf:RDF>
      <cc:Work
         rdf:about="">
        <dc:format>image/svg+xml</dc:format>
        <dc:type
           rdf:resource="http://purl.org/dc/dcmitype/StillImage" />
      </cc:Work>
    </rdf:RDF>
  </metadata>
  <defs
     id="defs7411" />
  <sodipodi:namedview
     pagecolor="#ffffff"
     bordercolor="#666666"
     borderopacity="1"
     objecttolerance="10"
     gridtolerance="10"
     guidetolerance="10"
     inkscape:pageopacity="0"
     inkscape:pageshadow="2"
     inkscape:window-width="1920"
     inkscape:window-height="1137"
     id="namedview7409"
     showgrid="false"
     inkscape:zoom="0.23046875"
     inkscape:cx="-210.44068"
     inkscape:cy="512"
     inkscape:window-x="-8"
     inkscape:window-y="-8"
     inkscape:window-maximized="1"
     inkscape:current-layer="svg7407" />
  <title
     id="title7402">djv-app-icon-1024</title>
  <g
     id="Layer_2"
     data-name="Layer 2"
     style="fill:#000000;fill-opacity:1">
    <g
       id="icon_designs.00"
       data-name="icon designs.00"
       style="fill:#000000;fill-opacity:1">
      <path
         id="djv-app-icon-1024"
         d="M1024,512c0,282.77-229.23,512-512,512S0,794.77,0,512,229.23,0,512,0,1024,229.23,1024,512ZM686.21,400.81,796.58,374c55.64-13.49,84.73-74.48,60.71-126.46A254.66,254.66,0,0,0,656.77,101.9c-56.85-6.78-105.87,39.73-101.51,96.81L563.91,312A99.2,99.2,0,0,0,686.21,400.81ZM557.78,78.68a45.78,45.78,0,1,0-91.56,0c0,19.4,18.44,39.33,32.6,59.88a15.93,15.93,0,0,0,26.36,0C539.34,118,557.78,98.08,557.78,78.68Zm380.48,343A45.78,45.78,0,0,0,910,334.56c-18.44,6-31.71,29.69-46.87,49.5a15.94,15.94,0,0,0,8.15,25.08C895.15,416.26,919.81,427.63,938.26,421.64ZM729.66,889.47a45.78,45.78,0,0,0,74.08-53.82c-11.4-15.69-38-21-61.57-29.28a15.93,15.93,0,0,0-21.33,15.5C721.46,846.81,718.26,873.78,729.66,889.47Zm-509.4-53.82a45.78,45.78,0,1,0,74.08,53.82c11.4-15.69,8.2-42.66,8.82-67.6a15.93,15.93,0,0,0-21.33-15.5C258.3,814.67,231.66,820,220.26,835.65ZM114,334.56a45.78,45.78,0,0,0-28.3,87.08c18.45,6,43.11-5.38,67-12.5a15.94,15.94,0,0,0,8.15-25.08C145.75,364.25,132.48,340.55,114,334.56ZM671.58,643.33,731.15,740c30,48.75,97,57.56,139,18.66A254.7,254.7,0,0,0,946.77,523c-11.13-56.16-70.5-88.41-123.45-66.63l-105,43.22A99.21,99.21,0,0,0,671.58,643.33Zm-235.17,61-73.55,86.53c-37.08,43.62-24.76,110.06,25.21,138a254.69,254.69,0,0,0,247.86,0c50-27.93,62.3-94.37,25.22-138l-73.56-86.53A99.2,99.2,0,0,0,436.41,704.35Zm-130.7-204.8-105-43.21C147.73,434.55,88.35,466.8,77.23,523a254.7,254.7,0,0,0,76.6,235.73c42,38.89,109,30.08,139-18.66l59.56-96.7A99.21,99.21,0,0,0,305.71,499.55ZM460.09,312l8.65-113.25c4.36-57.08-44.66-103.59-101.51-96.81A254.68,254.68,0,0,0,166.7,247.59c-24,52,5.08,113,60.71,126.46l110.37,26.77A99.21,99.21,0,0,0,460.09,312ZM512,373.76a35.84,35.84,0,1,0,35.84,35.84A35.84,35.84,0,0,0,512,373.76Zm131.46,95.52a35.83,35.83,0,1,0-23,45.15A35.81,35.81,0,0,0,643.46,469.28ZM593.25,623.84a35.84,35.84,0,1,0-50-7.93A35.83,35.83,0,0,0,593.25,623.84Zm-162.5,0a35.84,35.84,0,1,0-7.93-50.06A35.83,35.83,0,0,0,430.75,623.84ZM380.54,469.28a35.83,35.83,0,1,0,45.14-23A35.82,35.82,0,0,0,380.54,469.28Z"
         style="fill:#000000;fill-opacity:1" />
    </g>
  </g>
</svg>
