<?xml version="1.0" encoding="UTF-8" standalone="no"?>
<svg
   xmlns:dc="http://purl.org/dc/elements/1.1/"
   xmlns:cc="http://creativecommons.org/ns#"
   xmlns:rdf="http://www.w3.org/1999/02/22-rdf-syntax-ns#"
   xmlns:svg="http://www.w3.org/2000/svg"
   xmlns="http://www.w3.org/2000/svg"
   xmlns:sodipodi="http://sodipodi.sourceforge.net/DTD/sodipodi-0.dtd"
   xmlns:inkscape="http://www.inkscape.org/namespaces/inkscape"
   viewBox="0 0 16 16"
   version="1.1"
   id="svg4536"
   sodipodi:docname="djv-app-icon-16.svg"
   inkscape:export-filename="C:\dev\djv-git\etc\Icons\djv-app-icon-16.png"
   inkscape:export-xdpi="96"
   inkscape:export-ydpi="96"
   inkscape:version="0.92.4 (5da689c313, 2019-01-14)">
  <metadata
     id="metadata4542">
    <rdf:RDF>
      <cc:Work
         rdf:about="">
        <dc:format>image/svg+xml</dc:format>
        <dc:type
           rdf:resource="http://purl.org/dc/dcmitype/StillImage" />
      </cc:Work>
    </rdf:RDF>
  </metadata>
  <defs
     id="defs4540" />
  <sodipodi:namedview
     pagecolor="#ffffff"
     bordercolor="#666666"
     borderopacity="1"
     objecttolerance="10"
     gridtolerance="10"
     guidetolerance="10"
     inkscape:pageopacity="0"
     inkscape:pageshadow="2"
     inkscape:window-width="1920"
     inkscape:window-height="1137"
     id="namedview4538"
     showgrid="false"
     inkscape:zoom="58.625"
     inkscape:cx="8"
     inkscape:cy="8"
     inkscape:window-x="-8"
     inkscape:window-y="-8"
     inkscape:window-maximized="1"
     inkscape:current-layer="svg4536" />
  <title
     id="title4531">djv-app-icon-16</title>
  <g
     id="Layer_2"
     data-name="Layer 2"
     style="fill:#000000;fill-opacity:1">
    <g
       id="icon_designs.00"
       data-name="icon designs.00"
       style="fill:#000000;fill-opacity:1">
      <path
         id="djv-app-icon-16"
         d="M16,8A8,8,0,1,1,8,0,8,8,0,0,1,16,8ZM10.72,6.26l1.73-.42a1.42,1.42,0,0,0,1-2,4,4,0,0,0-1.28-1.55,4,4,0,0,0-1.86-.73A1.41,1.41,0,0,0,8.68,3.1l.13,1.77A1.54,1.54,0,0,0,10.72,6.26Zm-.23,3.79.93,1.51a1.42,1.42,0,0,0,2.18.29,3.83,3.83,0,0,0,1.07-1.68,3.91,3.91,0,0,0,.12-2,1.42,1.42,0,0,0-1.93-1l-1.64.68A1.55,1.55,0,0,0,10.49,10.05ZM6.82,11,5.67,12.36a1.41,1.41,0,0,0,.39,2.15,3.94,3.94,0,0,0,3.88,0,1.41,1.41,0,0,0,.39-2.15L9.18,11A1.55,1.55,0,0,0,6.82,11Zm-2-3.2L3.14,7.13a1.42,1.42,0,0,0-1.93,1,3.91,3.91,0,0,0,.12,2A3.83,3.83,0,0,0,2.4,11.85a1.42,1.42,0,0,0,2.18-.29l.93-1.51A1.55,1.55,0,0,0,4.78,7.81ZM7.19,4.87,7.32,3.1A1.41,1.41,0,0,0,5.74,1.59a4,4,0,0,0-1.86.73A4,4,0,0,0,2.6,3.87a1.42,1.42,0,0,0,.95,2l1.73.42A1.54,1.54,0,0,0,7.19,4.87Z"
         style="fill:#000000;fill-opacity:1" />
    </g>
  </g>
</svg>
