<?xml version="1.0" encoding="UTF-8" standalone="no"?>
<!-- Created with Inkscape (http://www.inkscape.org/) -->

<svg
   xmlns:dc="http://purl.org/dc/elements/1.1/"
   xmlns:cc="http://creativecommons.org/ns#"
   xmlns:rdf="http://www.w3.org/1999/02/22-rdf-syntax-ns#"
   xmlns:svg="http://www.w3.org/2000/svg"
   xmlns="http://www.w3.org/2000/svg"
   xmlns:sodipodi="http://sodipodi.sourceforge.net/DTD/sodipodi-0.dtd"
   xmlns:inkscape="http://www.inkscape.org/namespaces/inkscape"
   version="1.1"
   id="svg1366"
   xml:space="preserve"
   width="322.18799"
   height="87.685867"
   viewBox="0 0 322.18799 87.685867"
   sodipodi:docname="djv-tshirt-v02.svg"
   inkscape:version="0.92.4 (5da689c313, 2019-01-14)"
   inkscape:export-filename="C:\dev\djv-git\etc\Icons\djv-tshirt-v02.png"
   inkscape:export-xdpi="305.10001"
   inkscape:export-ydpi="305.10001"><metadata
     id="metadata1372"><rdf:RDF><cc:Work
         rdf:about=""><dc:format>image/svg+xml</dc:format><dc:type
           rdf:resource="http://purl.org/dc/dcmitype/StillImage" /><dc:title></dc:title></cc:Work></rdf:RDF></metadata><defs
     id="defs1370"><clipPath
       clipPathUnits="userSpaceOnUse"
       id="clipPath1382"><path
         d="M 0,65.764 H 241.641 V 0 H 0 Z"
         id="path1380"
         inkscape:connector-curvature="0" /></clipPath></defs><sodipodi:namedview
     pagecolor="#ffffff"
     bordercolor="#666666"
     borderopacity="1"
     objecttolerance="10"
     gridtolerance="10"
     guidetolerance="10"
     inkscape:pageopacity="0"
     inkscape:pageshadow="2"
     inkscape:window-width="1920"
     inkscape:window-height="1137"
     id="namedview1368"
     showgrid="false"
     units="px"
     inkscape:zoom="3.208655"
     inkscape:cx="161.09399"
     inkscape:cy="43.842934"
     inkscape:window-x="-8"
     inkscape:window-y="-8"
     inkscape:window-maximized="1"
     inkscape:current-layer="g1374" /><g
     id="g1374"
     inkscape:groupmode="layer"
     inkscape:label="djv-tshirt-v02"
     transform="matrix(1.3333333,0,0,-1.3333333,0,87.68587)"><rect
       style="opacity:1;fill:#000000;fill-opacity:1;stroke:none;stroke-width:0.74999994;stroke-miterlimit:4;stroke-dasharray:none;stroke-opacity:1"
       id="rect1435"
       width="241.64099"
       height="65.764404"
       x="1.0062357e-13"
       y="-65.764404"
       transform="scale(1,-1)" /><g
       id="g1384"
       transform="translate(124.5797,57.3166)"
       style="fill:none;fill-opacity:1;stroke:#ffffff;stroke-opacity:1"><path
         d="M 0,0 H 23.739 C 36.975,0 48.048,-10.49 48.269,-23.724 48.495,-37.243 37.604,-48.273 24.136,-48.273 H 0"
         style="fill:none;fill-opacity:1;stroke:#ffffff;stroke-width:2.41400003;stroke-linecap:round;stroke-linejoin:round;stroke-miterlimit:4;stroke-dasharray:none;stroke-opacity:1"
         id="path1386"
         inkscape:connector-curvature="0" /></g><g
       id="g1388"
       transform="translate(192.1616,57.3166)"
       style="stroke:#ffffff;stroke-opacity:1"><path
         d="m 0,0 19.819,-45.43 c 1.779,-3.558 6.856,-3.558 8.635,0 L 48.273,0"
         style="fill:none;stroke:#ffffff;stroke-width:2.41400003;stroke-linecap:round;stroke-linejoin:round;stroke-miterlimit:4;stroke-dasharray:none;stroke-opacity:1"
         id="path1390"
         inkscape:connector-curvature="0" /></g><g
       id="g1392"
       transform="translate(159.6776,1.2068)"
       style="stroke:#ffffff;stroke-opacity:1"><path
         d="M 0,0 C 13.282,4.552 22.829,17.148 22.829,31.973 V 63.351"
         style="fill:none;stroke:#ffffff;stroke-width:2.41400003;stroke-linecap:round;stroke-linejoin:round;stroke-miterlimit:4;stroke-dasharray:none;stroke-opacity:1"
         id="path1394"
         inkscape:connector-curvature="0" /></g><g
       id="g1396"
       transform="translate(20.5559,35.6762)"><path
         d="m 0,0 c -0.23,-0.708 0.157,-1.469 0.866,-1.699 0.708,-0.23 1.469,0.157 1.699,0.866 C 2.795,-0.125 2.407,0.636 1.699,0.866 0.991,1.096 0.23,0.708 0,0 M 2.449,-7.538 C 3.052,-7.975 3.895,-7.842 4.333,-7.239 4.77,-6.637 4.637,-5.794 4.034,-5.356 3.432,-4.918 2.589,-5.052 2.151,-5.654 1.713,-6.257 1.847,-7.1 2.449,-7.538 m 7.926,0 c 0.602,0.438 0.736,1.281 0.298,1.884 C 10.235,-5.052 9.392,-4.918 8.79,-5.356 8.187,-5.794 8.054,-6.637 8.491,-7.239 8.929,-7.842 9.772,-7.975 10.375,-7.538 M 12.824,0 c -0.23,0.708 -0.991,1.096 -1.699,0.866 -0.708,-0.23 -1.096,-0.991 -0.866,-1.699 0.23,-0.709 0.991,-1.096 1.699,-0.866 0.709,0.23 1.096,0.991 0.866,1.699 M 6.412,4.659 c -0.745,0 -1.348,-0.604 -1.348,-1.349 0,-0.745 0.603,-1.348 1.348,-1.348 0.745,0 1.348,0.603 1.348,1.348 0,0.745 -0.603,1.349 -1.348,1.349 m -21.089,2.27 c -1.079,0.351 -2.238,-0.24 -2.589,-1.319 -0.351,-1.079 0.24,-2.238 1.319,-2.589 0.828,-0.269 1.935,0.242 3.008,0.561 0.486,0.145 0.674,0.722 0.366,1.126 -0.681,0.889 -1.276,1.952 -2.104,2.221 m 18.355,1.524 0.455,5.965 c 0.23,3.007 -2.352,5.456 -5.347,5.099 -2.197,-0.261 -4.359,-1.072 -6.277,-2.465 -1.917,-1.393 -3.356,-3.2 -4.284,-5.208 -1.265,-2.738 0.267,-5.95 3.197,-6.661 l 5.814,-1.41 c 3.131,-0.76 6.197,1.468 6.442,4.68 M -8.676,-19.355 c -0.668,-0.918 -0.464,-2.203 0.454,-2.87 0.918,-0.667 2.203,-0.464 2.87,0.454 0.512,0.704 0.368,1.915 0.396,3.034 0.013,0.508 -0.479,0.865 -0.957,0.696 -1.056,-0.373 -2.252,-0.61 -2.763,-1.314 m 4.222,17.927 -5.532,2.277 c -2.788,1.147 -5.916,-0.552 -6.502,-3.51 -0.43,-2.17 -0.327,-4.477 0.405,-6.731 0.732,-2.255 2.006,-4.181 3.629,-5.685 2.213,-2.048 5.742,-1.584 7.323,0.983 l 3.138,5.093 c 1.69,2.743 0.519,6.347 -2.461,7.573 m 22.63,-20.343 c 0.667,-0.918 1.952,-1.121 2.87,-0.454 0.918,0.667 1.121,1.952 0.454,2.87 -0.511,0.704 -1.707,0.941 -2.763,1.314 -0.478,0.169 -0.97,-0.188 -0.957,-0.696 0.028,-1.119 -0.116,-2.33 0.396,-3.034 m -15.745,9.556 -3.875,-4.558 c -1.953,-2.297 -1.304,-5.797 1.329,-7.268 1.931,-1.079 4.157,-1.695 6.527,-1.695 2.37,0 4.596,0.616 6.528,1.695 2.632,1.471 3.281,4.971 1.328,7.268 l -3.874,4.558 c -2.087,2.455 -5.877,2.455 -7.963,0 M 28.771,3.021 C 29.85,3.372 30.441,4.531 30.09,5.61 29.739,6.689 28.58,7.28 27.501,6.929 26.673,6.66 26.078,5.597 25.397,4.708 25.089,4.304 25.277,3.727 25.763,3.582 c 1.073,-0.319 2.18,-0.83 3.008,-0.561 m -13.954,-12.022 3.138,-5.093 c 1.581,-2.567 5.11,-3.031 7.323,-0.983 1.623,1.504 2.896,3.431 3.629,5.685 0.732,2.254 0.835,4.561 0.405,6.732 -0.586,2.958 -3.714,4.656 -6.502,3.509 l -5.532,-2.276 c -2.98,-1.226 -4.151,-4.83 -2.461,-7.574 m -6.35,29.76 c 0,1.134 -0.92,2.054 -2.055,2.054 -1.135,0 -2.055,-0.92 -2.055,-2.054 0,-0.871 0.828,-1.766 1.463,-2.688 0.288,-0.418 0.896,-0.418 1.184,0 0.635,0.922 1.463,1.817 1.463,2.688 m 7.121,-16.986 5.813,1.41 c 2.931,0.711 4.463,3.923 3.198,6.661 -0.928,2.009 -2.367,3.815 -4.284,5.208 -1.918,1.393 -4.081,2.204 -6.278,2.465 -2.994,0.357 -5.576,-2.092 -5.346,-5.099 L 9.146,8.453 c 0.245,-3.212 3.311,-5.44 6.442,-4.68 M 33.38,-2.083 c 0,-14.894 -12.074,-26.968 -26.968,-26.968 -14.894,0 -26.968,12.074 -26.968,26.968 0,14.894 12.074,26.967 26.968,26.967 14.894,0 26.968,-12.073 26.968,-26.967"
         style="fill:#ffffff;fill-opacity:1;fill-rule:nonzero;stroke:none"
         id="path1398"
         inkscape:connector-curvature="0" /></g><path
       inkscape:connector-curvature="0"
       id="path1402"
       style="fill:#ffffff;fill-opacity:1;stroke:#ffffff;stroke-width:0.87;stroke-linecap:butt;stroke-linejoin:miter;stroke-miterlimit:4;stroke-dasharray:none;stroke-opacity:1"
       d="M 104.3826,60.5607 80.8536,6.6247" /><path
       inkscape:connector-curvature="0"
       id="path1406"
       style="fill:#ffffff;fill-opacity:1;stroke:#ffffff;stroke-width:0.87;stroke-linecap:butt;stroke-linejoin:miter;stroke-miterlimit:4;stroke-dasharray:none;stroke-opacity:1"
       d="M 94.9096,60.5607 71.3806,6.6247" /></g></svg>