<?xml version="1.0" encoding="UTF-8" standalone="no"?>
<!-- Created with Inkscape (http://www.inkscape.org/) -->

<svg
   xmlns:dc="http://purl.org/dc/elements/1.1/"
   xmlns:cc="http://creativecommons.org/ns#"
   xmlns:rdf="http://www.w3.org/1999/02/22-rdf-syntax-ns#"
   xmlns:svg="http://www.w3.org/2000/svg"
   xmlns="http://www.w3.org/2000/svg"
   xmlns:sodipodi="http://sodipodi.sourceforge.net/DTD/sodipodi-0.dtd"
   xmlns:inkscape="http://www.inkscape.org/namespaces/inkscape"
   version="1.1"
   id="svg3699"
   xml:space="preserve"
   width="256"
   height="256"
   viewBox="0 0 256.00001 256.00001"
   sodipodi:docname="GpLogo.svg"
   inkscape:version="0.91 r13725"
   inkscape:export-filename="C:\dev\Gp3D2\etc\Images\GpLogo512x512.png"
   inkscape:export-xdpi="36.860001"
   inkscape:export-ydpi="36.860001"><metadata
     id="metadata3705"><rdf:RDF><cc:Work
         rdf:about=""><dc:format>image/svg+xml</dc:format><dc:type
           rdf:resource="http://purl.org/dc/dcmitype/StillImage" /><dc:title /></cc:Work></rdf:RDF></metadata><defs
     id="defs3703"><clipPath
       clipPathUnits="userSpaceOnUse"
       id="clipPath3715"><path
         d="m 0,1000 1000,0 L 1000,0 0,0 Z"
         id="path3713"
         inkscape:connector-curvature="0" /></clipPath><clipPath
       clipPathUnits="userSpaceOnUse"
       id="clipPath5584"><path
         d="m 0,1000 1000,0 L 1000,0 0,0 Z"
         id="path5582"
         inkscape:connector-curvature="0" /></clipPath></defs><sodipodi:namedview
     pagecolor="#ffffff"
     bordercolor="#666666"
     borderopacity="1"
     objecttolerance="10"
     gridtolerance="10"
     guidetolerance="10"
     inkscape:pageopacity="0"
     inkscape:pageshadow="2"
     inkscape:window-width="1287"
     inkscape:window-height="735"
     id="namedview3701"
     showgrid="false"
     inkscape:zoom="1.9882812"
     inkscape:cx="143.59136"
     inkscape:cy="119.4499"
     inkscape:window-x="199"
     inkscape:window-y="128"
     inkscape:window-maximized="0"
     inkscape:current-layer="svg3699" /><rect
     style="fill:#000000;fill-opacity:1;stroke:none"
     id="GrizzlyPeak3D"
     width="256"
     height="256"
     x="0"
     y="-5.7220459e-06" /><g
     id="g4167"><path
       inkscape:connector-curvature="0"
       id="path3850"
       d="m 128.13343,14.413485 c -62.805884,0 -113.719929,50.914048 -113.719929,113.719935 0,62.80588 50.914045,113.71954 113.719929,113.71954 62.80588,0 113.71953,-50.91366 113.71953,-113.71954 0,-62.805887 -50.91365,-113.719935 -113.71953,-113.719935 z m -1.02487,7.505255 6.41954,0.548908 3.25482,6.316148 4.2871,-5.670489 6.3852,0.545787 -8.15481,9.702836 -0.63591,7.441274 -5.79104,-0.49546 0.63591,-7.440883 -6.40081,-10.948121 z m -11.94606,1.263619 1.50511,13.355202 8.99476,-1.013939 0.49156,4.363175 -14.75732,1.663499 -1.99706,-17.717985 5.76295,-0.649952 z m -13.16677,2.129701 1.14814,3.373815 -6.611861,13.273275 10.337961,-3.518161 1.23436,3.627395 -16.858534,5.737591 -1.191837,-3.500605 6.542422,-13.133999 -8.91205,3.032843 -1.226167,-3.603989 15.537566,-5.288165 z m 62.79632,3.32895 8.7837,3.975 c 1.91223,0.865294 3.14974,1.945883 3.71088,3.24156 0.56142,1.295412 0.48131,2.740696 -0.2407,4.336257 -0.74252,1.639771 -1.84159,2.686697 -3.29813,3.140519 -1.45521,0.453287 -3.24872,0.197892 -5.37907,-0.766209 l -2.89239,-1.309265 -2.72855,6.027844 -5.30767,-2.401617 7.35193,-16.244089 z m -84.88021,4.998302 1.868315,3.034792 -3.500994,14.409325 9.299445,-5.724328 2.008372,3.262238 -15.164999,9.336508 -1.938928,-3.14871 3.465104,-14.258733 -8.017489,4.9351 -1.995499,-3.241173 13.976673,-8.605019 z m 88.69331,0.705738 -1.6397,3.623105 1.29483,0.58558 c 1.0179,0.461009 1.80957,0.617189 2.37392,0.466981 0.56434,-0.149409 0.9648,-0.48642 1.20237,-1.010818 0.23037,-0.509481 0.24794,-1.022766 0.0503,-1.539439 -0.19761,-0.516141 -0.78975,-0.998133 -1.77702,-1.445028 l -1.50472,-0.680381 z m 17.27363,4.880482 12.39199,9.381373 -2.29824,3.035184 -7.75767,-5.872964 -1.71032,2.259224 7.19589,5.448116 -2.19485,2.899809 -7.19589,-5.448506 -2.12229,2.802279 7.98277,6.043451 -2.4379,3.219714 -12.61591,-9.55186 10.76242,-14.21582 z m -57.74535,7.381195 c 45.0254,0 81.52629,36.500488 81.52629,81.526693 0,27.1834 -13.30786,51.25577 -33.76037,66.06831 -4.0953,-12.28137 -12.28247,-21.72626 -22.33709,-25.41089 l 0,0.46074 c -2.24193,1.68691 -4.79912,3.14641 -7.71007,4.38776 -7.80655,3.33067 -11.60534,3.96126 -16.2,4.08111 l 0,0.0293 c -0.57127,0 -1.11978,-0.001 -1.65297,-0.004 -0.53238,0.003 -1.08167,0.004 -1.65374,0.004 l 8e-4,-0.0293 c -4.59413,-0.11985 -8.39384,-0.75044 -16.2004,-4.08111 -2.91121,-1.24135 -5.4693,-2.70202 -7.71124,-4.38893 l 0,-0.12484 c -9.751339,3.9387 -17.64402,13.33427 -21.582188,25.43001 -20.728713,-14.78191 -34.245693,-39.02304 -34.245693,-66.42216 0,-45.026205 36.500486,-81.526693 81.526681,-81.526693 z m -67.908153,0.427578 11.81615,13.352081 -4.352251,3.85289 -11.81693,-13.352472 4.353031,-3.852499 z m -8.798914,10.91301 c 0.980347,0.03169 1.917232,0.398529 2.809691,1.099767 0.77794,0.611219 1.31183,1.312924 1.60186,2.105511 0.289763,0.792322 0.370143,1.632323 0.240708,2.518658 -0.08256,0.564879 -0.316689,1.244121 -0.703399,2.037241 0.599502,-0.407747 1.082057,-0.668112 1.44932,-0.781034 0.246884,-0.07724 0.683361,-0.127419 1.310825,-0.150589 0.626667,-0.02237 1.084159,-0.0074 1.372856,0.04564 l 5.79767,0.98312 -4.048344,5.15318 -6.1995,-0.92811 c -0.797647,-0.127038 -1.37415,-0.135 -1.72943,-0.02341 -0.475127,0.158463 -0.876368,0.445644 -1.203151,0.86218 l -0.316391,0.40222 5.690774,4.470849 -3.598526,4.580867 -14.021146,-11.014834 5.970885,-7.600834 c 1.107119,-1.409932 2.068201,-2.396572 2.883425,-2.96145 0.814426,-0.564878 1.711793,-0.831206 2.691873,-0.798979 z m 156.105217,0.288304 4.04171,4.867217 -9.21283,16.816013 -3.87982,-4.672544 1.66429,-2.602534 -4.20634,-5.065793 -2.84871,1.176231 -3.78228,-4.555897 18.22398,-5.962693 z M 49.940761,63.492182 c -0.118219,-0.0012 -0.237509,0.01222 -0.357356,0.04019 -0.47992,0.111589 -1.046073,0.583888 -1.700171,1.416158 l -1.573769,2.003301 2.850264,2.238545 1.51057,-1.922543 c 0.163257,-0.208002 0.416318,-0.660522 0.758015,-1.358031 0.17977,-0.34729 0.226716,-0.709793 0.141226,-1.086112 -0.08549,-0.376319 -0.281647,-0.685011 -0.587921,-0.925771 -0.338967,-0.26666 -0.686197,-0.401957 -1.040858,-0.405732 z m 156.010419,0.07451 -6.24163,2.517487 2.63336,3.170949 3.60827,-5.688436 z m 13.78005,10.960605 2.49876,5.234328 -6.08051,2.902541 8.69747,2.579517 3.32349,6.961027 -9.0244,-3.281355 -6.93488,11.23994 -3.07693,-6.445284 4.91364,-6.730073 -3.98203,-1.419281 -3.927,1.874559 -2.49837,-5.233938 16.09076,-7.681981 z M 38.222141,78.732086 c 0.414246,-0.0079 0.84479,0.01706 1.29132,0.07529 l -1.404845,5.498053 c -0.708695,-0.06259 -1.337613,0.08563 -1.887043,0.443576 -0.549432,0.358476 -0.998153,0.927512 -1.344376,1.707582 -0.516674,1.162514 -0.544211,2.258598 -0.08427,3.289547 0.460478,1.03095 1.520563,1.915013 3.180311,2.65247 1.763612,0.783533 3.177815,0.994865 4.244187,0.632396 1.06557,-0.362205 1.87653,-1.167268 2.430488,-2.415273 0.263931,-0.592843 0.433071,-1.194696 0.509505,-1.805116 0.07617,-0.610418 0.07222,-1.350019 -0.01248,-2.219039 l -1.533589,-0.681551 -1.575329,3.545078 -3.38981,-1.506277 3.63871,-8.189536 6.946984,3.086291 c 0.318525,2.018487 0.39383,3.711985 0.224712,5.079837 -0.168318,1.368384 -0.620239,2.879259 -1.3553,4.53288 -0.904444,2.035533 -1.971359,3.548848 -3.200988,4.538731 -1.229361,0.989937 -2.653437,1.548308 -4.271104,1.674814 -1.617665,0.126239 -3.271274,-0.185797 -4.960849,-0.936304 -1.778528,-0.79019 -3.153231,-1.863437 -4.125589,-3.220103 -0.972089,-1.356667 -1.468234,-2.931525 -1.487942,-4.724434 -0.0098,-1.395283 0.421793,-3.076505 1.29561,-5.041993 0.841858,-1.895445 1.634486,-3.24022 2.378601,-4.03547 0.743584,-0.794719 1.595861,-1.350511 2.556499,-1.66584 0.600735,-0.197248 1.24618,-0.302373 1.936588,-0.315612 z m -8.837925,45.275744 c 2.335681,0 4.229361,1.89315 4.229361,4.22936 0,2.33569 -1.89368,4.22936 -4.229361,4.22936 -2.336215,0 -4.229752,-1.89367 -4.229752,-4.22936 0,-2.33621 1.893537,-4.22936 4.229752,-4.22936 z m 196.334284,0 c 2.33621,0 4.23013,1.89315 4.23013,4.22936 0,2.33569 -1.89392,4.22936 -4.23013,4.22936 -2.33596,0 -4.22898,-1.89367 -4.22898,-4.22936 0,-2.33621 1.89302,-4.22936 4.22898,-4.22936 z m -180.363286,38.02914 3.707762,6.66453 -8.050649,7.84428 10.900134,-2.72114 3.705811,6.66063 -15.581262,8.66784 -2.309158,-4.15017 11.882863,-6.6103 -13.66184,3.41165 -2.090299,-3.75653 10.107008,-9.8031 -11.882473,6.60992 -2.309549,-4.14978 15.581652,-8.66783 z m 167.196906,1.95532 c 0.77086,-0.0206 1.5941,0.12954 2.46873,0.45059 l -2.2569,4.98894 c -0.77795,-0.24262 -1.43654,-0.24175 -1.9756,0.002 -0.53877,0.24369 -0.99766,0.729 -1.37558,1.45634 -0.31134,0.59817 -0.42573,1.11145 -0.34292,1.53944 0.0831,0.42825 0.29804,0.73249 0.64214,0.91172 0.25222,0.13104 0.54375,0.12513 0.87584,-0.0203 0.33371,-0.13316 0.82868,-0.60783 1.48093,-1.42279 1.63177,-2.00864 2.93659,-3.3759 3.91374,-4.10297 0.97795,-0.72733 1.93175,-1.13105 2.85962,-1.21095 0.92788,-0.0788 1.82379,0.10689 2.68641,0.55671 1.01393,0.52733 1.79555,1.30968 2.34311,2.34622 0.5481,1.03655 0.7675,2.19868 0.65776,3.4893 -0.11052,1.28955 -0.58464,2.74096 -1.42436,4.35303 -1.4752,2.83211 -3.01449,4.52178 -4.61832,5.07281 -1.60301,0.54997 -3.24062,0.4814 -4.91209,-0.20598 l 2.25846,-5.04473 c 0.81016,0.28657 1.49834,0.37041 2.06376,0.25163 0.91537,-0.19655 1.62936,-0.78644 2.14258,-1.77078 0.38192,-0.73426 0.51377,-1.38582 0.39286,-1.95337 -0.11959,-0.56834 -0.39521,-0.96473 -0.82746,-1.18871 -0.40962,-0.21413 -0.874,-0.21532 -1.39548,-0.005 -0.52039,0.20987 -1.2839,0.92793 -2.28927,2.15623 -1.65629,2.00411 -3.13518,3.27923 -4.43378,3.82519 -1.30313,0.5529 -2.57303,0.50692 -3.81037,-0.13732 -0.81204,-0.42293 -1.45013,-1.07114 -1.91513,-1.94283 -0.46421,-0.87249 -0.64344,-1.91419 -0.53877,-3.12491 0.10546,-1.21072 0.60948,-2.68337 1.51292,-4.41663 1.10705,-2.12714 2.32755,-3.55279 3.66133,-4.27773 0.6662,-0.36261 1.38499,-0.55409 2.15584,-0.57466 z m -10.46123,14.1218 13.68563,11.42914 -3.50372,4.19659 -12.0202,-0.88129 7.51462,6.27557 -3.4967,4.18567 -13.68486,-11.42915 3.47134,-4.15601 12.10133,0.89807 -7.57118,-6.322 3.50374,-4.19659 z m -73.77176,4.36824 c 2.5016,0 4.52976,2.02765 4.52976,4.52898 0,2.50214 -2.02816,4.53015 -4.52976,4.53015 -2.50161,0 -4.52976,-2.02801 -4.52976,-4.53015 0,-2.50133 2.02815,-4.52898 4.52976,-4.52898 z m -72.06027,2.35481 c 0.146017,6e-4 0.292404,0.005 0.439282,0.0144 2.350331,0.14328 4.564045,1.33021 6.641124,3.5599 2.12928,2.28508 3.186741,4.58949 3.172898,6.91265 -0.01384,2.32183 -1.070574,4.46154 -3.170557,6.41798 -1.524985,1.42058 -3.027317,2.3152 -4.505962,2.68407 -1.479176,0.36859 -2.965958,0.29608 -4.460315,-0.21926 -1.493825,-0.5148 -2.950801,-1.53506 -4.370587,-3.05899 -1.442956,-1.54868 -2.402552,-3.04811 -2.878744,-4.49931 -0.477258,-1.45255 -0.501702,-2.96654 -0.07451,-4.54186 0.426389,-1.57612 1.4024,-3.07368 2.927119,-4.49426 1.996699,-1.86062 4.089992,-2.78531 6.280256,-2.77536 z m 1.236312,5.15201 c -1.058915,0.0173 -2.25227,0.64499 -3.580972,1.88314 -1.317249,1.2267 -2.023289,2.36612 -2.119167,3.4179 -0.09535,1.05066 0.269736,2.01996 1.095864,2.90683 0.849587,0.91163 1.788533,1.35513 2.817886,1.32956 1.028817,-0.0256 2.273261,-0.7181 3.73273,-2.07743 1.228031,-1.14414 1.882153,-2.24085 1.963116,-3.29072 0.08096,-1.04879 -0.294416,-2.01983 -1.126685,-2.91307 -0.79685,-0.85624 -1.724658,-1.27379 -2.782772,-1.25621 z m 130.070518,4.18645 11.50288,13.62439 -4.44198,3.74989 -11.5021,-13.62478 4.4412,-3.7495 z m -116.220248,2.71956 7.114348,4.85981 c 1.402739,0.95772 2.412006,1.91328 3.028552,2.86352 0.616013,0.95187 0.974992,1.95854 1.077529,3.01958 0.10147,1.06185 -0.02722,2.12713 -0.386226,3.19748 -0.359541,1.07143 -0.881596,2.10799 -1.567917,3.11282 -1.074896,1.57319 -2.09711,2.66486 -3.066004,3.27396 -0.96943,0.60988 -1.988759,0.97867 -3.058592,1.10678 -1.069833,0.1289 -2.055274,0.0273 -2.955989,-0.30353 -1.233092,-0.44954 -2.275914,-0.96479 -3.128425,-1.54724 l -7.114736,-4.85979 10.05746,-14.72339 z m 56.973688,0.14318 c 2.5016,0 4.52976,2.02829 4.52976,4.53015 0,2.50214 -2.02816,4.53015 -4.52976,4.53015 -2.50161,0 -4.52976,-2.02801 -4.52976,-4.53015 0,-2.50186 2.02815,-4.53015 4.52976,-4.53015 z m 47.67268,5.97948 15.1412,11.76504 -5.22887,3.08902 -2.30526,-2.05635 -5.66932,3.34884 0.70925,2.99928 -5.09895,3.01218 -2.99461,-18.93946 5.44656,-3.21855 z m -102.135122,0.48258 -5.495714,8.04402 1.173892,0.8021 c 1.000587,0.68392 1.784673,1.06384 2.351681,1.14268 0.566744,0.078 1.149723,-0.0643 1.748158,-0.42602 0.598701,-0.36247 1.300017,-1.13157 2.105122,-2.31033 1.065573,-1.56014 1.527415,-2.81036 1.38573,-3.75262 -0.142484,-0.9412 -0.834021,-1.83665 -2.074304,-2.68329 l -1.194565,-0.81654 z m 13.565867,3.93989 14.376165,5.90691 -1.44659,3.52088 -9.00022,-3.69684 -1.07675,2.62048 8.349098,3.43039 -1.382218,3.36329 -8.349098,-3.43 -1.335403,3.2517 9.260823,3.80412 -1.534757,3.73507 -14.637157,-6.01302 6.776107,-16.49298 z m 88.136205,1.20276 1.49458,6.56076 3.54859,-2.09654 -5.04317,-4.46422 z m -14.31257,2.57757 c 0.99047,-0.0174 1.88577,0.25827 2.68368,0.82902 0.79685,0.57127 1.37212,1.39593 1.72553,2.47456 0.30841,0.94013 0.36371,1.81971 0.16503,2.63998 -0.19868,0.82029 -0.59807,1.56324 -1.1973,2.22879 -0.38218,0.42426 -0.95434,0.85903 -1.71656,1.3046 0.72521,-0.007 1.27217,0.0454 1.6397,0.15488 0.24795,0.0717 0.63911,0.27263 1.17389,0.60235 0.53346,0.32866 0.90602,0.59498 1.11616,0.79898 l 4.27851,4.03508 -6.22759,2.04036 -4.6425,-4.21258 c -0.59284,-0.5481 -1.0685,-0.87376 -1.42591,-0.97923 -0.48365,-0.13129 -0.97588,-0.11451 -1.47897,0.0503 l -0.48649,0.15877 2.25337,6.87756 -5.5359,1.81368 -5.55228,-16.94435 9.18631,-3.00906 c 1.70343,-0.55848 3.04979,-0.84616 4.04132,-0.86373 z m -56.96276,2.75194 5.69195,1.11264 -2.57835,13.18979 8.88357,1.73724 -0.84267,4.30895 -14.57474,-2.84988 3.42024,-17.49874 z m 42.14537,1.51916 0.46815,4.37761 -5.88116,0.62967 1.42982,13.3509 -5.76724,0.61757 -1.42865,-13.3517 -5.88115,0.63006 -0.46894,-4.37761 17.52917,-1.8765 z m 12.23398,0.0928 c -0.41582,0.01 -0.93822,0.11763 -1.56675,0.32303 l -2.42113,0.79352 1.12864,3.44482 2.32398,-0.76192 c 0.25195,-0.082 0.71289,-0.31868 1.38456,-0.70964 0.34196,-0.18856 0.58195,-0.46333 0.72017,-0.82472 0.13716,-0.36088 0.14549,-0.72622 0.0246,-1.09586 -0.17923,-0.54704 -0.49974,-0.90728 -0.96049,-1.08066 -0.17288,-0.0648 -0.38407,-0.0944 -0.63356,-0.0886 z"
       style="display:inline;fill:#ffffff;fill-opacity:1;fill-rule:evenodd;stroke:none;stroke-width:1.33333325" /><path
       inkscape:connector-curvature="0"
       id="path3910"
       d="m 138.67452,129.38481 c 0,1.59369 1.29168,2.88538 2.88538,2.88538 1.59236,0 2.88404,-1.29169 2.88404,-2.88538 0,-1.59263 -1.29168,-2.88405 -2.88404,-2.88405 -1.5937,0 -2.88538,1.29142 -2.88538,2.88405"
       style="fill:#ffffff;fill-opacity:1;fill-rule:evenodd;stroke:none;stroke-width:1.33333325" /><path
       inkscape:connector-curvature="0"
       id="path3840"
       d="m 104.89847,100.36535 46.69847,0 0,-21.86033 11.00434,-5.318537 -68.709008,0 11.006198,5.318537 z"
       style="fill:#ffffff;fill-opacity:1;fill-rule:evenodd;stroke:none;stroke-width:1.33333325" /><path
       inkscape:connector-curvature="0"
       id="path3838"
       d="m 126.346,167.88202 c -4.59413,-0.11958 -8.39354,-0.75077 -16.2001,-4.08119 -2.91068,-1.24241 -5.46981,-2.70108 -7.71121,-4.38799 l 0,8.08514 c 2.24194,1.68797 4.8,3.14744 7.71121,4.38985 7.80656,3.32988 11.60597,3.96161 16.2001,4.08039 l -6e-4,0.029 c 0.2618,0 0.51721,0 0.77022,-0.001 l 0,-8.08647 -0.77022,0 z"
       style="fill:#ffffff;fill-opacity:1;fill-rule:evenodd;stroke:none;stroke-width:1.33333325" /><path
       inkscape:connector-curvature="0"
       id="path3836"
       d="m 151.89922,101.71563 -47.10115,0 c 0.84505,6.86376 11.06213,12.2859 23.55071,12.2859 12.48777,0 22.70538,-5.42214 23.55044,-12.2859"
       style="fill:#ffffff;fill-opacity:1;fill-rule:evenodd;stroke:none;stroke-width:1.33333325" /><path
       inkscape:connector-curvature="0"
       id="path3832"
       d="m 111.71776,129.38481 c 0,1.59369 1.29142,2.88538 2.88458,2.88538 1.59317,0 2.88458,-1.29169 2.88458,-2.88538 0,-1.59263 -1.29141,-2.88405 -2.88458,-2.88405 -1.59316,0 -2.88458,1.29142 -2.88458,2.88405"
       style="fill:#ffffff;fill-opacity:1;fill-rule:evenodd;stroke:none;stroke-width:1.33333325" /><path
       inkscape:connector-curvature="0"
       id="path3830"
       d="m 153.56243,167.49904 0,-8.08513 c -2.24194,1.68691 -4.80027,3.14531 -7.71015,4.38692 -7.80656,3.33042 -11.60544,3.96161 -16.2001,4.08119 l 0,0.0277 -0.11985,0 0,8.08753 0.11985,0 0,-0.029 c 4.59466,-0.11878 8.39354,-0.75051 16.2001,-4.08039 2.91095,-1.24241 5.46821,-2.70188 7.71015,-4.38879"
       style="fill:#ffffff;fill-opacity:1;fill-rule:evenodd;stroke:none;stroke-width:1.33333325" /><path
       inkscape:connector-curvature="0"
       id="path3719"
       d="m 135.87543,154.58354 c 1.34255,0 2.60973,-0.32145 3.73016,-0.88899 -0.75476,0.22664 -1.55374,0.34942 -2.38229,0.34942 -4.41356,0 -8.03613,-3.22735 -8.28088,-7.57912 l -0.009,-0.22664 0.009,-0.58246 0,-1.36705 c 2.57031,-0.39789 4.58561,-2.67472 4.8293,-5.51908 l 0,-0.35635 c 0,-1.48903 -1.20753,-2.69575 -2.69576,-2.69575 l -5.84879,0 c -1.48877,0 -2.69576,1.20672 -2.69576,2.69575 l 0,0.52973 c 0.30867,2.75621 2.28455,4.94568 4.79387,5.34304 l 0,1.36971 0.01,0.58246 -0.01,0.22664 c -0.24475,4.35177 -3.86705,7.57912 -8.28035,7.57912 -0.82854,0 -1.62805,-0.12278 -2.38282,-0.34942 1.1215,0.56754 2.38788,0.88899 3.7307,0.88899 3.52802,0 6.54604,-2.20784 7.74104,-5.31667 1.19527,3.10883 4.21355,5.31667 7.74158,5.31667"
       style="fill:#ffffff;fill-opacity:1;fill-rule:evenodd;stroke:none;stroke-width:1.33333325" /><path
       d="m 92.321106,94.90388 c -5.081505,0 -10.067933,3.340264 -12.760761,8.09606 -4.680685,8.26623 -2.05817,18.94059 9.707065,18.94059 -0.158466,20.95083 5.540387,33.42876 20.87865,39.97239 7.80656,3.33068 11.60571,3.96161 16.19984,4.08172 l -6e-4,0.0285 c 0.57207,0 1.12123,-0.001 1.65362,-0.004 0.53318,0.003 1.08181,0.004 1.65308,0.004 l 0,-0.0285 c 4.59467,-0.12011 8.39355,-0.75104 16.20037,-4.08172 15.33853,-6.54363 21.03632,-19.02156 20.87839,-39.97239 12.8569,0 14.15684,-12.58179 8.1139,-21.01501 -2.62864,-3.669179 -6.77055,-5.964646 -11.02112,-5.964113 -4.12753,2e-4 -8.35785,2.166032 -11.4001,7.341553 -0.39097,7.48057 -11.05947,13.47664 -24.17231,13.47664 -12.40442,0 -22.62203,-5.36514 -24.02211,-12.27657 -3.11362,-6.138827 -7.545822,-8.59915 -11.907982,-8.59915 m 0,2.13061 c 4.014071,0 7.428376,2.486956 9.886302,7.19587 0.9087,3.88597 4.06707,7.39109 8.93019,9.89669 4.73501,2.43955 10.81258,3.78317 17.1136,3.78317 6.69011,0 13.04573,-1.49303 17.89633,-4.20396 4.96725,-2.77619 7.91469,-6.56894 8.35918,-10.73029 2.36898,-3.798884 5.66263,-5.883686 9.31796,-5.883953 3.48675,0 7.04567,1.944449 9.28814,5.074583 3.08406,4.30383 3.95148,9.81413 2.10957,13.39995 -1.42618,2.77591 -4.36243,4.24337 -8.49155,4.24337 l -2.14659,0 0.016,2.14659 c 0.0786,10.42934 -1.35987,18.41407 -4.39812,24.40988 -3.09178,6.10234 -8.05903,10.54652 -15.18592,13.58691 -7.40548,3.15943 -11.00301,3.79621 -15.41977,3.91153 l -1.00938,0.0261 c -0.19388,-6e-4 -0.38564,-0.002 -0.57553,-0.003 l -0.0125,0 -0.0122,0 c -0.1899,0.001 -0.38165,0.002 -0.57607,0.003 l -1.00911,-0.0261 c -4.41676,-0.11532 -8.01403,-0.7521 -15.4195,-3.91153 -7.12636,-3.04039 -12.093875,-7.48457 -15.185924,-13.58718 -3.038252,-5.9958 -4.476946,-13.98053 -4.398114,-24.40961 l 0.01598,-2.14659 -2.146589,0 c -4.048427,0 -7.014505,-1.41712 -8.577574,-4.09823 -1.811551,-3.10776 -1.527114,-7.68538 0.724409,-11.6619 2.375896,-4.196234 6.759095,-7.0153 10.906861,-7.0153"
       style="fill:#ffffff;fill-opacity:1;fill-rule:nonzero;stroke:none;stroke-width:1.33333325"
       id="path3723"
       inkscape:connector-curvature="0" /><path
       inkscape:connector-curvature="0"
       id="path3826"
       d="M 128.00039,9.9999927 C 62.830602,9.9999927 10,62.830589 10,128.00038 10,193.17018 62.830602,246 128.00039,246 193.17019,246 246,193.17018 246,128.00038 246,62.830589 193.17019,9.9999927 128.00039,9.9999927 Z m 0.13304,3.1249053 c 63.5167,0 115.00812,51.491276 115.00812,115.008522 0,63.5167 -51.49142,115.00813 -115.00812,115.00813 -63.517243,0 -115.008516,-51.49143 -115.008516,-115.00813 0,-63.517246 51.491273,-115.008522 115.008516,-115.008522 z"
       style="display:inline;fill:#ffffff;fill-opacity:1;fill-rule:evenodd;stroke:none;stroke-width:1.33333325" /></g></svg>