<?xml version="1.0" encoding="UTF-8" standalone="no"?>
<svg
   version="1.1"
   width="32"
   height="32"
   viewBox="0 0 24.00228 23.999195"
   id="svg24"
   sodipodi:docname="DJV_Icon_32.svg"
   inkscape:version="1.4.2 (ebf0e94, 2025-05-08)"
   inkscape:export-filename="DJV_Icon_32.png"
   inkscape:export-xdpi="96"
   inkscape:export-ydpi="96"
   xmlns:inkscape="http://www.inkscape.org/namespaces/inkscape"
   xmlns:sodipodi="http://sodipodi.sourceforge.net/DTD/sodipodi-0.dtd"
   xmlns:xlink="http://www.w3.org/1999/xlink"
   xmlns="http://www.w3.org/2000/svg"
   xmlns:svg="http://www.w3.org/2000/svg">
  <sodipodi:namedview
     id="namedview24"
     pagecolor="#ffffff"
     bordercolor="#000000"
     borderopacity="0.25"
     inkscape:showpageshadow="2"
     inkscape:pageopacity="0.0"
     inkscape:pagecheckerboard="0"
     inkscape:deskcolor="#d1d1d1"
     inkscape:document-units="px"
     showgrid="false"
     inkscape:current-layer="g7">
    <inkscape:page
       x="0"
       y="0"
       width="24.002279"
       height="23.999195"
       id="page2"
       margin="0"
       bleed="0" />
  </sodipodi:namedview>
  <defs
     id="defs1">
    <linearGradient
       id="linearGradient7"
       inkscape:collect="always">
      <stop
         style="stop-color:#4d4d4d;stop-opacity:1;"
         offset="0"
         id="stop7" />
      <stop
         style="stop-color:#808080;stop-opacity:1;"
         offset="1"
         id="stop16" />
    </linearGradient>
    <linearGradient
       id="linearGradient1"
       inkscape:collect="always">
      <stop
         style="stop-color:#4d4d4d;stop-opacity:1;"
         offset="0"
         id="stop1" />
      <stop
         style="stop-color:#b2b2b2;stop-opacity:1;"
         offset="1"
         id="stop2" />
    </linearGradient>
    <linearGradient
       id="linearGradient27"
       inkscape:collect="always">
      <stop
         style="stop-color:#808080;stop-opacity:1;"
         offset="0"
         id="stop27" />
      <stop
         style="stop-color:#cccccc;stop-opacity:1;"
         offset="1"
         id="stop28" />
    </linearGradient>
    <linearGradient
       id="linearGradient26"
       inkscape:collect="always">
      <stop
         style="stop-color:#808080;stop-opacity:1;"
         offset="0"
         id="stop25" />
      <stop
         style="stop-color:#ffffff;stop-opacity:1;"
         offset="1"
         id="stop26" />
    </linearGradient>
    <linearGradient
       id="linearGradient24"
       inkscape:collect="always">
      <stop
         style="stop-color:#808080;stop-opacity:1;"
         offset="0"
         id="stop23" />
      <stop
         style="stop-color:#ffffff;stop-opacity:1;"
         offset="1"
         id="stop24" />
    </linearGradient>
    <linearGradient
       id="linearGradient14"
       inkscape:collect="always">
      <stop
         style="stop-color:#808080;stop-opacity:1;"
         offset="0"
         id="stop14" />
      <stop
         style="stop-color:#ffffff;stop-opacity:1;"
         offset="1"
         id="stop15" />
    </linearGradient>
    <linearGradient
       id="linearGradient12"
       inkscape:collect="always">
      <stop
         style="stop-color:#808080;stop-opacity:1;"
         offset="0"
         id="stop12" />
      <stop
         style="stop-color:#ffffff;stop-opacity:1;"
         offset="1"
         id="stop13" />
    </linearGradient>
    <linearGradient
       id="linearGradient10"
       inkscape:collect="always">
      <stop
         style="stop-color:#808080;stop-opacity:1;"
         offset="0"
         id="stop10" />
      <stop
         style="stop-color:#ffffff;stop-opacity:1;"
         offset="1"
         id="stop11" />
    </linearGradient>
    <linearGradient
       id="linearGradient8"
       inkscape:collect="always">
      <stop
         style="stop-color:#808080;stop-opacity:1;"
         offset="0"
         id="stop8" />
      <stop
         style="stop-color:#ffffff;stop-opacity:1;"
         offset="1"
         id="stop9" />
    </linearGradient>
    <linearGradient
       inkscape:collect="always"
       xlink:href="#linearGradient8"
       id="linearGradient9"
       x1="130.43703"
       y1="86.462952"
       x2="253.56725"
       y2="86.462952"
       gradientUnits="userSpaceOnUse" />
    <linearGradient
       inkscape:collect="always"
       xlink:href="#linearGradient10"
       id="linearGradient11"
       x1="40.047272"
       y1="127.78686"
       x2="146.10066"
       y2="127.78686"
       gradientUnits="userSpaceOnUse" />
    <linearGradient
       inkscape:collect="always"
       xlink:href="#linearGradient12"
       id="linearGradient13"
       x1="237.90356"
       y1="127.78682"
       x2="343.95691"
       y2="127.78682"
       gradientUnits="userSpaceOnUse" />
    <linearGradient
       inkscape:collect="always"
       xlink:href="#linearGradient24"
       id="linearGradient15"
       x1="237.9035"
       y1="256.15442"
       x2="343.95691"
       y2="256.15442"
       gradientUnits="userSpaceOnUse" />
    <linearGradient
       inkscape:collect="always"
       xlink:href="#linearGradient26"
       id="linearGradient16"
       x1="130.43704"
       y1="297.47833"
       x2="253.5672"
       y2="297.47833"
       gradientUnits="userSpaceOnUse" />
    <linearGradient
       inkscape:collect="always"
       xlink:href="#linearGradient14"
       id="linearGradient17"
       x1="40.047287"
       y1="256.15439"
       x2="146.10066"
       y2="256.15439"
       gradientUnits="userSpaceOnUse" />
    <linearGradient
       inkscape:collect="always"
       xlink:href="#linearGradient27"
       id="linearGradient28"
       x1="-362.25974"
       y1="192.01823"
       x2="-21.72739"
       y2="192.01823"
       gradientUnits="userSpaceOnUse" />
    <linearGradient
       inkscape:collect="always"
       xlink:href="#linearGradient1"
       id="linearGradient2"
       x1="-362.25974"
       y1="192.01823"
       x2="-21.72739"
       y2="192.01823"
       gradientUnits="userSpaceOnUse" />
    <linearGradient
       inkscape:collect="always"
       xlink:href="#linearGradient7"
       id="linearGradient18"
       x1="-218.80859"
       y1="192.01823"
       x2="-165.17851"
       y2="192.01823"
       gradientUnits="userSpaceOnUse"
       gradientTransform="matrix(0,1.2,-1.2,0,422.44011,422.38582)" />
  </defs>
  <g
     id="g7"
     transform="scale(0.0625)">
    <path
       style="fill:url(#linearGradient28);fill-opacity:1;stroke:url(#linearGradient2);stroke-width:3.00028;stroke-dasharray:none;stroke-opacity:1"
       d="M -23.227533,192.01824 A 168.76602,168.76602 0 0 0 -191.99356,23.252208 168.76602,168.76602 0 0 0 -360.75959,192.01824 168.76602,168.76602 0 0 0 -191.99356,360.78426 168.76602,168.76602 0 0 0 -23.227533,192.01824 Z"
       id="circle1"
       transform="rotate(-90)" />
    <path
       style="fill:#333333;fill-opacity:1;stroke:url(#linearGradient18);stroke-width:3.60034;stroke-dasharray:none;stroke-opacity:1"
       d="m 192.01822,222.37144 a 30.377886,30.377886 0 0 1 -30.37787,-30.37788 30.377886,30.377886 0 0 1 30.37787,-30.37788 30.377886,30.377886 0 0 1 30.37789,30.37788 30.377886,30.377886 0 0 1 -30.37789,30.37788 z"
       id="path7" />
    <rect
       style="fill:#000000;fill-opacity:0;stroke-width:38.2418"
       id="rect7"
       width="384.03647"
       height="384.03647"
       x="0"
       y="-0.024675" />
    <path
       d="M 178.79234,126.52528 137.06761,74.060766 a 16.878005,16.878005 0 0 1 7.9942,-26.557583 151.90204,151.90204 0 0 1 93.88059,0 16.878005,16.878005 0 0 1 7.99421,26.557641 l -41.72474,52.464456 a 16.878005,16.878005 0 0 1 -26.41953,0"
       stroke="#000000"
       stroke-width="0.137534"
       stroke-linecap="round"
       stroke-linejoin="round"
       fill="none"
       id="path1"
       style="fill:#333333;fill-opacity:1;stroke:url(#linearGradient9);stroke-width:3.00028;stroke-dasharray:none;stroke-opacity:1" />
    <path
       d="m 128.71991,170.68794 -66.297944,9.90247 A 16.878005,16.878005 0 0 1 43.419496,160.3884 151.90204,151.90204 0 0 1 90.35982,79.085409 a 16.878005,16.878005 0 0 1 26.99664,6.355635 l 24.57319,62.366926 a 16.878005,16.878005 0 0 1 -13.20974,22.87997"
       stroke="#000000"
       stroke-width="0.137534"
       stroke-linecap="round"
       stroke-linejoin="round"
       fill="none"
       id="path2"
       style="fill:#333333;fill-opacity:1;stroke:url(#linearGradient11);stroke-width:3.00028;stroke-dasharray:none;stroke-opacity:1" />
    <path
       d="m 141.92965,236.13335 -24.5732,62.36686 A 16.878005,16.878005 0 0 1 90.35982,304.85585 151.90204,151.90204 0 0 1 43.419496,223.5528 16.878005,16.878005 0 0 1 62.421955,203.35085 l 66.297955,9.90252 a 16.878005,16.878005 0 0 1 13.20974,22.87998"
       stroke="#000000"
       stroke-width="0.137534"
       stroke-linecap="round"
       stroke-linejoin="round"
       fill="none"
       id="path3"
       style="fill:#333333;fill-opacity:1;stroke:url(#linearGradient17);stroke-width:3.00028;stroke-dasharray:none;stroke-opacity:1" />
    <path
       d="m 205.21187,257.41603 41.72474,52.46446 a 16.878005,16.878005 0 0 1 -7.99421,26.55758 151.90204,151.90204 0 0 1 -93.88059,0 16.878005,16.878005 0 0 1 -7.99418,-26.55758 l 41.72471,-52.46446 a 16.878005,16.878005 0 0 1 26.41955,0"
       stroke="#000000"
       stroke-width="0.137534"
       stroke-linecap="round"
       stroke-linejoin="round"
       fill="none"
       id="path4"
       style="fill:#333333;fill-opacity:1;stroke:url(#linearGradient16);stroke-width:3.00028;stroke-dasharray:none;stroke-opacity:1" />
    <path
       d="m 255.28434,213.25337 66.29792,-9.90252 a 16.878005,16.878005 0 0 1 19.00245,20.20195 151.90204,151.90204 0 0 1 -46.94028,81.30305 16.878005,16.878005 0 0 1 -26.99666,-6.35564 l -24.57321,-62.36686 a 16.878005,16.878005 0 0 1 13.20978,-22.88009"
       stroke="#000000"
       stroke-width="0.137534"
       stroke-linecap="round"
       stroke-linejoin="round"
       fill="none"
       id="path5"
       style="fill:#333333;fill-opacity:1;stroke:url(#linearGradient15);stroke-width:3.00028;stroke-dasharray:none;stroke-opacity:1" />
    <path
       d="m 242.07456,147.80797 24.57321,-62.366926 a 16.878005,16.878005 0 0 1 26.99666,-6.355635 151.90204,151.90204 0 0 1 46.94028,81.302991 16.878005,16.878005 0 0 1 -19.00245,20.20196 l -66.29792,-9.90242 a 16.878005,16.878005 0 0 1 -13.20976,-22.87997"
       stroke="#000000"
       stroke-width="0.137534"
       stroke-linecap="round"
       stroke-linejoin="round"
       fill="none"
       id="path6"
       style="fill:#333333;fill-opacity:1;stroke:url(#linearGradient13);stroke-width:3.00028;stroke-dasharray:none;stroke-opacity:1" />
  </g>
</svg>
